<?xml version="1.0" standalone="no"?>
<!DOCTYPE svg PUBLIC "-//W3C//DTD SVG 1.1//EN" "http://www.w3.org/Graphics/SVG/1.1/DTD/svg11.dtd" >
<svg xmlns="http://www.w3.org/2000/svg">
<metadata></metadata>
<defs>
<font id="forumregular" horiz-adv-x="993" >
<font-face units-per-em="2048" ascent="1638" descent="-410" />
<missing-glyph horiz-adv-x="532" />
<glyph horiz-adv-x="0" />
<glyph horiz-adv-x="682" />
<glyph horiz-adv-x="0" />
<glyph horiz-adv-x="0" />
<glyph unicode="&#xd;" horiz-adv-x="532" />
<glyph unicode=" "  horiz-adv-x="532" />
<glyph unicode="&#x09;" horiz-adv-x="532" />
<glyph unicode="&#xa0;" horiz-adv-x="532" />
<glyph unicode="!" horiz-adv-x="514" d="M119 1329v21h264v-21q-24 0 -39.5 -34.5t-17.5 -71.5l-54 -990h-24l-62 990q0 34 -19.5 70t-47.5 36zM164 78q0 41 27.5 69.5t68.5 28.5t68.5 -28.5t27.5 -69.5t-27.5 -68.5t-68.5 -27.5t-68.5 27.5t-27.5 68.5z" />
<glyph unicode="&#x22;" horiz-adv-x="530" d="M102 860v500h103v-500h-103zM319 860v500h103v-500h-103z" />
<glyph unicode="#" horiz-adv-x="1030" d="M55 420v119h226l36 266h-206v121h225l65 415h101l-62 -415h219l64 415h102l-63 -415h199v-121h-218l-38 -266h200v-119h-215l-57 -420h-105l60 420h-223l-62 -420h-100l59 420h-207zM381 539h227l37 266h-223z" />
<glyph unicode="$" horiz-adv-x="1003" d="M74 1020q0 107 55.5 186t140.5 118t187 44v154h69v-154q75 -6 152 -22q89 -19 131 -19v-211h-21q-4 93 -70.5 134t-191.5 46v-534q53 -20 81.5 -32t77 -35.5t76 -43t62 -51t53 -64.5t31.5 -78t13 -96q0 -71 -22.5 -130.5t-59.5 -101t-88.5 -71.5t-106.5 -47t-117 -24 v-168h-69v164q-140 9 -238 47q-70 24 -113 24v232h21q0 -58 27 -102.5t64.5 -68t85 -38.5t80.5 -19t60 -4h13v590q-48 17 -79 29.5t-75.5 33.5t-73.5 40.5t-61 48.5t-50.5 60.5t-31 73t-12.5 89.5zM213 1038q0 -48 18.5 -86.5t55.5 -68.5t75 -50.5t95 -44.5v508 q-65 -6 -115 -34.5t-76.5 -69t-39.5 -80t-13 -74.5zM526 61q122 23 188 104.5t66 180.5q0 51 -21 94.5t-59.5 77t-79 57t-94.5 46.5v-560z" />
<glyph unicode="%" horiz-adv-x="1572" d="M70 979q0 128 90.5 219.5t218.5 91.5q129 0 220 -91.5t91 -219.5q0 -129 -91 -220t-220 -91t-219 91t-90 220zM207 983q0 -113 55 -186.5t135 -73.5q69 0 111.5 68.5t42.5 183.5q0 103 -57.5 176.5t-133.5 73.5q-71 0 -112 -67.5t-41 -174.5zM369 -51l704 1392h105 l-709 -1392h-100zM864 287q0 130 90.5 221.5t219.5 91.5t220 -91.5t91 -221.5q0 -128 -91 -219t-220 -91t-219.5 91t-90.5 219zM1001 293q0 -102 56 -174t133 -72q71 0 112 67.5t41 174.5q0 114 -53.5 184t-136.5 70q-70 0 -111 -67t-41 -183z" />
<glyph unicode="&#x26;" horiz-adv-x="1572" d="M80 317q0 142 72.5 241.5t238.5 178.5q-102 85 -153.5 164.5t-51.5 163.5q0 120 87 206.5t214 86.5q75 0 137 -26t101 -70t60.5 -99t21.5 -114q0 -82 -50.5 -163.5t-160.5 -144.5q289 -240 393 -323q72 142 102.5 287t30.5 221q0 26 -20 47.5t-45 21.5v21h211v-21 q-21 0 -42.5 -19.5t-25.5 -47.5q-9 -80 -35 -207q-49 -226 -125 -344q38 -35 181 -154l88 -71q58 -50 82 -66q94 -66 137 -66v-20h-115q-71 0 -129 26t-121 74l-202 160q-108 -147 -226.5 -212.5t-263.5 -65.5q-178 0 -284.5 98.5t-106.5 236.5zM209 358q0 -73 41.5 -141.5 t116.5 -114.5t163 -49q97 0 196.5 67.5t184.5 182.5l-458 381q-120 -58 -182 -144.5t-62 -181.5zM309 1112q0 -32 4 -41q12 -65 69.5 -129.5t152.5 -144.5q76 31 120.5 96.5t44.5 132.5q0 106 -64 186t-179 80q-66 0 -107 -52t-41 -128z" />
<glyph unicode="'" horiz-adv-x="309" d="M102 860v500h103v-500h-103z" />
<glyph unicode="(" horiz-adv-x="450" d="M18 670q0 252 81.5 455t248.5 399l19 -11q-121 -171 -166 -377.5t-45 -467.5q0 -121 8.5 -223.5t31 -214t66.5 -214.5t109 -192l-19 -10q-168 195 -251 402t-83 454z" />
<glyph unicode=")" horiz-adv-x="450" d="M16 1513l19 11q169 -193 251.5 -400t82.5 -456q0 -251 -81.5 -455t-248.5 -399l-19 10q122 172 167.5 379t45.5 467q0 256 -46.5 464.5t-170.5 378.5z" />
<glyph unicode="*" horiz-adv-x="661" d="M88 961l141 129l-141 133l2 4l186 -58l46 191h4l45 -191l184 58l2 -4l-141 -133l141 -129l-2 -5l-184 56l-45 -189h-4l-46 189l-186 -56z" />
<glyph unicode="+" horiz-adv-x="956" d="M72 623v98h350v350h100v-350h348v-98h-348v-349h-100v349h-350z" />
<glyph unicode="," horiz-adv-x="247" d="M-8 -217q75 66 96 110t21 97q0 11 -5.5 19.5t-11 12.5t-16.5 11q-19 11 -24.5 15t-15 19t-9.5 35q0 38 24 63t60 25q57 0 85.5 -38.5t28.5 -96.5q0 -188 -223 -291z" />
<glyph unicode="-" horiz-adv-x="610" d="M59 422v102h465v-102h-465z" />
<glyph unicode="." horiz-adv-x="411" d="M106 88q0 41 28 69.5t69 28.5t69.5 -28.5t28.5 -69.5t-28.5 -68.5t-69.5 -27.5t-69 27.5t-28 68.5z" />
<glyph unicode="/" horiz-adv-x="681" d="M10 -100l578 1562l76 -20l-578 -1567z" />
<glyph unicode="0" horiz-adv-x="1091" d="M76 635q0 152 40 277t106 204t148 121.5t169 42.5q88 0 170 -42.5t147.5 -121.5t105 -204t39.5 -277q0 -153 -39.5 -280t-105 -207.5t-147.5 -124t-170 -43.5q-87 0 -169 43.5t-148 124t-106 207.5t-40 280zM197 713q0 -113 27.5 -228.5t74.5 -209.5t117.5 -153 t150.5 -59q126 0 215.5 139t89.5 380q0 142 -32 260t-85 192.5t-119 115t-136 40.5q-90 0 -160.5 -67.5t-106.5 -175.5t-36 -234z" />
<glyph unicode="1" horiz-adv-x="665" d="M12 1042v74l477 166v-55q-33 -14 -52 -45.5t-15 -71.5v-981q0 -51 16.5 -80t63.5 -29v-20h-289v20q45 0 60.5 26.5t15.5 74.5v981q0 20 -21 20q-7 0 -22 -6z" />
<glyph unicode="2" horiz-adv-x="878" d="M47 981v164h19q6 0 13.5 3.5t24 15t21.5 14.5q45 31 70.5 46.5t89.5 35.5t133 20q72 0 136 -20t115.5 -58.5t82 -103t30.5 -146.5q0 -55 -18 -107.5t-40.5 -89.5t-69.5 -85t-76 -73.5t-89 -74.5q-63 -51 -105 -89.5t-87.5 -91t-69.5 -109t-28 -117.5h426q167 0 170 118 h18v-233h-758q0 52 11.5 102.5t27 90.5t46.5 85.5t53.5 74.5t66 72t66 63.5t69.5 62.5q66 58 98 88.5t76 81.5t63 98.5t19 98.5q0 129 -82 207.5t-188 78.5q-101 0 -181 -60t-132 -163h-21z" />
<glyph unicode="3" horiz-adv-x="870" d="M18 39v158h21q53 -72 131 -111t164 -39q143 0 231 91t88 216q0 62 -24.5 120t-68.5 103t-111 72t-146 27h-94v67h104q121 0 189.5 72.5t68.5 171.5q0 91 -64 160.5t-173 69.5q-72 0 -141 -40.5t-115 -115.5h-21v160h19q14 0 76 20q38 13 55 18.5t61 13t88 7.5 q159 0 252.5 -84.5t93.5 -206.5q0 -83 -50 -156t-146 -116q138 -40 209 -128.5t71 -207.5q0 -174 -125 -287.5t-331 -113.5q-98 0 -215 40q-59 19 -78 19h-19z" />
<glyph unicode="4" horiz-adv-x="860" d="M6 330l692 981v-879h125v-102h-125v-201q0 -109 80 -109v-20h-289v20q22 0 37 6.5t22.5 15t11.5 26t4.5 28.5t0.5 33v201h-559zM158 432h407v574z" />
<glyph unicode="5" horiz-adv-x="899" d="M35 41v162q53 -71 139.5 -112.5t175.5 -41.5q154 0 236 88.5t82 229.5q0 105 -48 181.5t-119.5 112t-154.5 35.5q-143 0 -303 -123l262 687h512l-41 -115h-428q-20 -53 -71.5 -184t-77.5 -199q83 39 184 39q110 0 205.5 -48.5t157 -146t61.5 -223.5q0 -74 -28.5 -144.5 t-82 -129t-141.5 -94t-197 -35.5q-66 0 -208 36q-84 25 -115 25z" />
<glyph unicode="6" horiz-adv-x="1005" d="M66 508q0 108 24 215.5t72.5 204.5t115.5 171.5t160.5 118.5t200.5 44q45 0 117 -13q7 -1 17 -2.5t16.5 -2.5t7.5 -1v-147h-21q-32 41 -78 65.5t-88 24.5q-72 0 -134.5 -30.5t-104.5 -77.5t-74 -109t-49.5 -120.5t-24.5 -115.5q107 96 287 96q82 0 151 -23t117.5 -63 t83 -93.5t50.5 -114t16 -125.5q0 -82 -27.5 -158t-78.5 -137.5t-133 -98t-183 -36.5q-90 0 -163.5 28t-124.5 77t-85.5 116t-50.5 144t-16 163zM197 451q0 -98 37 -188t112.5 -151t173.5 -61q90 0 156 48t96.5 121t30.5 159q0 71 -21.5 138t-61 121t-101 87t-134.5 33 q-94 0 -161 -44.5t-97 -112.5t-30 -150z" />
<glyph unicode="7" horiz-adv-x="903" d="M14 1030v230h840l-483 -1260h-97l441 1145h-535q-30 0 -51.5 -3.5t-45 -14t-36 -35t-12.5 -62.5h-21z" />
<glyph unicode="8" horiz-adv-x="1030" d="M45 330q0 122 72 213.5t219 134.5q-118 54 -171.5 124.5t-53.5 172.5q0 96 54.5 167t137.5 104.5t180 33.5t181.5 -33.5t142 -106t57.5 -171.5q0 -91 -61 -171t-160 -122q134 -39 212.5 -125.5t78.5 -216.5q0 -116 -62 -197.5t-159.5 -119t-220.5 -37.5q-116 0 -215 37 t-165.5 118.5t-66.5 194.5zM176 356q0 -124 103.5 -212.5t236.5 -88.5q74 0 145.5 28.5t120.5 84t49 123.5q0 110 -109.5 195t-287.5 141q-113 -39 -185.5 -110.5t-72.5 -160.5zM236 1016q0 -54 26 -102t71.5 -84.5t98.5 -64t115 -46.5q198 79 198 219q0 119 -89 196.5 t-201 77.5q-87 0 -153 -52t-66 -144z" />
<glyph unicode="9" horiz-adv-x="1005" d="M66 831q0 82 27 158t78 137.5t133 98.5t183 37q112 0 198.5 -42.5t138.5 -117t78 -168t26 -201.5q0 -113 -17.5 -218t-59 -204.5t-103.5 -173t-156.5 -118t-212.5 -44.5q-45 0 -139 17l-41 6v147h20q33 -42 79.5 -65.5t86.5 -16.5q68 0 128 28.5t102 73.5t75 105 t52 118.5t28 117.5q-104 -94 -287 -94q-102 0 -183 35t-131 94.5t-76.5 133.5t-26.5 156zM193 862q0 -96 36 -181t109.5 -141.5t169.5 -56.5q141 0 216 90t75 218q0 72 -22.5 142.5t-62.5 128t-103 93t-138 35.5q-132 0 -206 -97t-74 -231z" />
<glyph unicode=":" horiz-adv-x="411" d="M106 88q0 41 28 69.5t69 28.5t69.5 -28.5t28.5 -69.5t-28.5 -68.5t-69.5 -27.5t-69 27.5t-28 68.5zM106 694q0 41 28 70t69 29t69.5 -29t28.5 -70t-28.5 -68.5t-69.5 -27.5t-69 27.5t-28 68.5z" />
<glyph unicode=";" horiz-adv-x="415" d="M57 -211q80 72 105.5 117t25.5 92q0 7 -1.5 13t-6 11t-7.5 7.5t-10.5 8t-10.5 7.5h2q-16 9 -24 15t-16 19.5t-8 31.5q0 38 24 63t60 25q57 0 86 -39t29 -97q0 -178 -227 -294zM106 696q0 41 28 70t69 29t69.5 -29t28.5 -70t-28.5 -68.5t-69.5 -27.5t-69 27.5t-28 68.5z " />
<glyph unicode="&#x3c;" horiz-adv-x="956" d="M72 614v109l802 330v-123l-657 -262q200 -76 657 -258v-125z" />
<glyph unicode="=" horiz-adv-x="956" d="M72 471v98h798v-98h-798zM72 778v103h798v-103h-798z" />
<glyph unicode="&#x3e;" horiz-adv-x="956" d="M72 285v125l655 258l-655 262v123l802 -330v-109z" />
<glyph unicode="?" horiz-adv-x="837" d="M51 1110v215h49q13 0 19 2q132 33 254 33q103 0 184 -28.5t129 -76.5t73 -108t25 -127q0 -58 -14 -101t-44.5 -74.5t-58.5 -50.5t-75 -44q-4 -2 -22 -12.5t-23 -14t-21 -13t-23 -15t-21 -15.5t-22.5 -18t-19.5 -18.5t-20.5 -22t-18.5 -23.5q-40 -59 -65 -147.5 t-25 -182.5h-18l-31 230q-4 11 -4 57q0 48 15.5 87.5t46 70.5t59.5 52.5t71 49.5q4 2 6.5 3.5t6 4t6.5 4.5q35 21 54 33.5t46 34t41 40t24.5 44t10.5 53.5q0 114 -72.5 186t-195.5 72q-153 0 -227 -40.5t-78 -139.5h-21zM207 61q0 41 28.5 70t71.5 29q41 0 68.5 -28.5 t27.5 -70.5t-27.5 -71t-68.5 -29q-42 0 -71 29t-29 71z" />
<glyph unicode="@" horiz-adv-x="1808" d="M100 252q0 147 47.5 288.5t134 257.5t200.5 204t254.5 137t287.5 49q165 0 293 -43.5t208 -122.5t120.5 -184.5t40.5 -233.5q0 -85 -25 -171.5t-72.5 -164t-111.5 -138.5t-149 -96.5t-177 -35.5q-47 0 -81 20t-52.5 54t-26.5 72.5t-8 82.5v39q-62 -104 -167.5 -183 t-186.5 -79q-60 0 -102 51t-42 156q0 134 41 249.5t108.5 192.5t155.5 120.5t183 43.5q59 0 135 -29q3 4 5 14t5 13q0 1 1 3t1 3q15 34 33 62l94 -13q-45 -94 -78.5 -259.5t-33.5 -307.5q0 -221 90 -221q103 0 181.5 65.5t117.5 169.5t39 228q0 84 -20 164.5t-63.5 155 t-105.5 130.5t-154 89.5t-202 33.5q-96 0 -192 -30t-182 -84.5t-161 -133t-129 -171t-85 -204t-31 -227.5q0 -151 52.5 -269t142 -188.5t201 -106.5t238.5 -36q135 0 269.5 43t244.5 121l13 -18q-99 -94 -263 -162t-358 -68q-141 0 -262 40.5t-215 120.5t-147.5 210 t-53.5 297zM645 252q0 -57 17 -84t43 -27q50 0 138.5 92t153.5 185q37 183 72 284q-58 37 -121 37q-67 0 -126.5 -50.5t-96.5 -126.5t-58.5 -158.5t-21.5 -151.5z" />
<glyph unicode="A" horiz-adv-x="1208" d="M29 0v20h10q25 0 50 30.5t44 76.5l469 1249l459 -1237q39 -119 106 -119h11v-20h-304v20h11q49 0 49 46q0 16 -6 34l-185 498h-358l-178 -489q-6 -15 -6 -31q0 -25 13.5 -41.5t31.5 -16.5h10v-20h-227zM406 668h315l-158 428z" />
<glyph unicode="B" horiz-adv-x="1001" d="M88 1331v21h336q189 0 297 -83.5t108 -224.5q0 -56 -20 -105.5t-53.5 -85.5t-67 -60.5t-70.5 -42.5q82 -15 143 -54t94.5 -91t49 -107t15.5 -113q0 -82 -25.5 -148.5t-68.5 -110t-103 -72.5t-125.5 -41.5t-138.5 -12.5h-367v20h10q28 0 47 38.5t19 74.5v1090 q0 35 -19.5 71.5t-50.5 36.5h-10zM305 68h119q166 0 261 74.5t95 207.5v23q-17 160 -107.5 244.5t-252.5 84.5h-115v-634zM305 768h107q65 0 116 15t82 39t51 57t27.5 65.5t7.5 67.5v14q-6 119 -83 188.5t-205 69.5h-103v-516z" />
<glyph unicode="C" horiz-adv-x="1275" d="M80 674q0 103 28.5 202.5t88.5 189.5t145.5 158t209 108t269.5 40q87 0 219 -37q59 -20 107 -20v-228h-21q-12 61 -44.5 105t-78.5 65.5t-92 31t-98 9.5q-117 0 -216 -35.5t-167.5 -95t-117 -138t-71 -164t-22.5 -173.5q0 -120 48 -236t128.5 -205t194.5 -143.5 t239 -54.5q44 0 88.5 8.5t96.5 30.5t94 68t63 112h21v-227q-33 0 -139 -27q-152 -38 -254 -38q-139 0 -257.5 40t-202 107.5t-143 157t-88 188.5t-28.5 201z" />
<glyph unicode="D" horiz-adv-x="1261" d="M90 0v20h10q28 0 47 38.5t19 74.5v1092q0 35 -18.5 70.5t-47.5 35.5h-10v21h395q127 0 238.5 -37t193.5 -101.5t141.5 -150.5t89.5 -186.5t30 -206.5q0 -101 -28.5 -197t-88 -182t-143 -150.5t-202 -102.5t-257.5 -38h-369zM303 72h109q90 0 178 21.5t169.5 67.5t143 111 t98.5 160t37 207q0 130 -48 247.5t-131 204.5t-200.5 138t-250.5 51h-105v-1208z" />
<glyph unicode="E" d="M92 0v20h10q28 0 49 37t21 72v1096q0 33 -21 69.5t-49 36.5h-10v21h789v-191h-21q-5 52 -39.5 85.5t-99.5 33.5h-412v-518h340q47 0 79 28.5t32 67.5h20v-256h-20q0 38 -31 64t-80 26h-340v-620h449q70 0 111.5 57t41.5 111h21v-240h-840z" />
<glyph unicode="F" horiz-adv-x="942" d="M94 0v20h10q30 0 49 36.5t19 72.5v1096q0 35 -18.5 70.5t-49.5 35.5h-10v21h787v-191h-21q0 51 -33.5 85t-97.5 34h-420v-518h340q47 0 79 28.5t32 67.5h20v-256h-20q0 38 -31 64t-80 26h-340v-563q0 -36 19 -72.5t49 -36.5h10v-20h-293z" />
<glyph unicode="G" horiz-adv-x="1345" d="M76 678q0 104 27.5 203t87 188.5t144 156.5t208 106.5t270.5 39.5q85 0 242 -35q70 -16 80 -16h18v-217h-20q-38 196 -328 196q-148 0 -265 -53.5t-186.5 -141.5t-105 -192t-35.5 -215q0 -95 28.5 -188.5t84 -175.5t130.5 -145t174.5 -99.5t209.5 -36.5q121 0 211 51v482 q0 34 -19.5 70t-48.5 36h-10v21h293v-21h-11q-28 0 -47.5 -36t-19.5 -70v-549q-69 -26 -178 -41.5t-207 -15.5q-143 0 -264.5 40t-205.5 108t-143 158t-86.5 189.5t-27.5 202.5z" />
<glyph unicode="H" horiz-adv-x="1273" d="M117 0v20h10q28 0 47 38t19 75v1092q0 35 -18.5 70.5t-47.5 35.5h-10v21h286v-21h-10q-29 0 -46 -35t-17 -71v-463h655v463q0 35 -18 70.5t-47 35.5h-11v21h287v-21h-10q-29 0 -46.5 -35.5t-17.5 -70.5v-1092q0 -35 19 -74t45 -39h10v-20h-287v20h11q28 0 46.5 38 t18.5 75v557h-655v-557q0 -37 17.5 -75t45.5 -38h10v-20h-286z" />
<glyph unicode="I" horiz-adv-x="497" d="M100 0v20h11q30 0 48.5 37.5t18.5 75.5v1092q0 35 -19 70.5t-48 35.5h-11v21h293v-21h-10q-27 0 -46.5 -35.5t-19.5 -70.5v-1092q0 -36 19 -74.5t47 -38.5h10v-20h-293z" />
<glyph unicode="J" horiz-adv-x="552" d="M-27 -414q77 57 127 121q129 164 129 344v1172q0 35 -18.5 71.5t-46.5 36.5h-10v21h295v-21h-11q-28 0 -48.5 -37t-20.5 -71v-1141q0 -212 -193 -385q-76 -71 -192 -127z" />
<glyph unicode="K" horiz-adv-x="1159" d="M92 0v20h10q29 0 48.5 38.5t19.5 74.5v1092q0 34 -19 70t-47 36h-10v21h293v-21h-10q-28 0 -49 -36.5t-21 -69.5v-475l520 516q13 16 13 32q0 33 -25 33h-10v21h250v-21h-11q-49 0 -120 -71l-430 -429l452 -686q13 -25 66.5 -75t105.5 -50v-20h-49q-81 0 -132 14 t-81.5 40.5t-64.5 78.5l-398 600l-86 -88v-512q0 -34 20 -73.5t48 -39.5h10v-20h-293z" />
<glyph unicode="L" horiz-adv-x="952" d="M92 0v20h10q28 0 49 37t21 72v1096q0 33 -21 69.5t-49 36.5h-10v21h295v-21h-10q-28 0 -48 -36t-20 -70v-1149h449q71 0 112 59t41 123h21v-258h-840z" />
<glyph unicode="M" horiz-adv-x="1591" d="M94 0v20h10q28 0 46 38t18 75v1092q0 35 -18 70.5t-46 35.5h-10v21h209l475 -1121l475 1121h232v-21h-10q-29 0 -48.5 -36t-19.5 -70v-1092q0 -36 19.5 -74.5t48.5 -38.5h10v-20h-291v20h10q28 0 47 38.5t19 74.5v1077l-529 -1233l-501 1170v-1014q0 -37 19 -75t48 -38 h10v-20h-223z" />
<glyph unicode="N" horiz-adv-x="1286" d="M86 1331v21h207l743 -1172v1045q0 34 -20.5 70t-48.5 36h-11v21h230v-21h-10q-29 0 -48.5 -36t-19.5 -70v-1225h-127l-741 1176v-1043q0 -37 19 -75t48 -38h10v-20h-227v20h10q28 0 48 38.5t20 74.5v1092q0 39 -17 72.5t-55 33.5h-10z" />
<glyph unicode="O" horiz-adv-x="1558" d="M76 662q0 106 30 209t90 193.5t143 159t197.5 108.5t245.5 40q124 0 234 -36.5t192 -101t141.5 -151t90 -190t30.5 -213.5q0 -200 -97 -361.5t-260.5 -250t-358.5 -88.5q-153 0 -282.5 57t-215 152t-133 218t-47.5 255zM213 690q0 -113 43.5 -227t117 -205.5t181 -149 t225.5 -57.5q106 5 197.5 43t155.5 98t109.5 137.5t67 160t21.5 165.5q0 114 -41.5 228t-114.5 207t-183 151.5t-236 58.5q-98 0 -186 -36.5t-152 -98t-111 -140t-70.5 -165t-23.5 -170.5z" />
<glyph unicode="P" horiz-adv-x="925" d="M90 0v20h10q28 0 46 38t18 75v1092q0 33 -18 67.5t-46 38.5h-10v21h291q226 0 344.5 -86.5t118.5 -247.5q0 -83 -41 -153t-107.5 -115t-148.5 -70t-166 -25h-78v-522q0 -36 19 -74.5t47 -38.5h10v-20h-289zM303 727h62q157 0 249.5 78.5t92.5 183.5q0 61 -20 111.5 t-62.5 92t-117 64.5t-175.5 23h-29v-553z" />
<glyph unicode="Q" horiz-adv-x="1579" d="M82 662q0 106 30 209t90.5 193t143.5 159t197 109t243 40q123 0 233.5 -39t192.5 -106.5t142 -155t90.5 -187t30.5 -200.5q0 -314 -236 -532l68 -76q156 -144 359 -228t368 -84q146 0 309 52.5t295 156.5l12 -18q-131 -144 -322 -221.5t-386 -77.5q-206 0 -391 77.5 t-363 266.5l-70 74q-67 -43 -170 -68.5t-198 -25.5q-139 0 -264.5 58.5t-213 153.5t-139 218.5t-51.5 251.5zM219 692q0 -113 43 -227.5t116 -206.5t180 -149.5t226 -57.5q107 5 199 43t156 98t109.5 137t67 159.5t21.5 164.5q0 114 -42.5 229t-115.5 208t-183 151.5 t-234 58.5q-99 0 -187 -36.5t-151.5 -98t-110.5 -140t-70.5 -164.5t-23.5 -169z" />
<glyph unicode="R" horiz-adv-x="1105" d="M92 0v20h10q28 0 47 38.5t19 74.5v1092q0 34 -19 70t-47 36h-10v21h357q206 0 317 -81t111 -235q0 -146 -88.5 -230.5t-231.5 -111.5l148 -225q25 -38 100.5 -149t116.5 -175q25 -36 44 -58.5t50 -44.5t59 -22v-20h-88q-134 0 -221 133q-68 100 -192.5 288.5 t-172.5 260.5q-51 3 -96 12v-561q0 -36 19 -74.5t47 -38.5h10v-20h-289zM305 762h10q46 -4 142 -4q46 0 91.5 14t89 43.5t70.5 84.5t27 128q0 61 -19.5 106t-52.5 73t-85 45t-109.5 23.5t-132.5 6.5h-31v-520z" />
<glyph unicode="S" horiz-adv-x="1003" d="M74 1020q0 87 35 156t93.5 110.5t131.5 63.5t153 22q93 0 191 -24q89 -19 131 -19v-211h-21q-4 101 -79.5 141.5t-225.5 40.5q-63 0 -112 -18.5t-78 -46.5t-48 -64.5t-25.5 -69t-6.5 -63.5q0 -44 18 -81.5t43.5 -63t70.5 -50.5t82.5 -40.5t96.5 -36.5q44 -17 64 -25 t61.5 -25.5t62 -30t55 -34t52.5 -40.5t41 -47t34 -57t19.5 -66.5t8.5 -78.5q0 -79 -27 -144t-71 -107.5t-103.5 -72t-122.5 -42t-129 -12.5q-38 0 -78.5 5.5t-60 10t-63 17.5t-48.5 14q-74 24 -113 24v234h21q0 -59 27 -103.5t64.5 -68.5t85 -39t80.5 -19t60 -4 q85 0 151.5 25.5t105.5 68t59 93t20 104.5q0 50 -18 91t-43.5 68t-70.5 54t-80.5 42.5t-93.5 38.5q-15 6 -23 9q-158 61 -220 100q-143 90 -156 239q-1 16 -1 32z" />
<glyph unicode="T" horiz-adv-x="958" d="M18 1128v224h920v-224h-20q0 54 -35.5 101t-96.5 47h-241v-1143q0 -36 18.5 -74.5t46.5 -38.5h11v-20h-291v20h10q29 0 48.5 38.5t19.5 74.5v1143h-238q-61 0 -96 -47t-35 -101h-21z" />
<glyph unicode="U" horiz-adv-x="1196" d="M92 1331v21h291v-21h-10q-29 0 -48.5 -36t-19.5 -70v-809q0 -369 330 -369q78 0 136.5 22t91 56t52 85t25.5 97.5t6 104.5v813q0 34 -18.5 70t-46.5 36h-11v21h224v-21h-11q-28 0 -46.5 -36t-18.5 -70v-807q0 -103 -22 -181t-59 -126.5t-92 -78t-114 -41t-133 -11.5 q-78 0 -140 12t-117.5 42t-92.5 78.5t-58.5 125.5t-21.5 178v809q0 34 -19 70t-47 36h-10z" />
<glyph unicode="V" horiz-adv-x="1206" d="M23 1331v21h290v-21q-20 0 -36.5 -14t-16.5 -37q0 -13 6 -31l361 -970l360 981q6 18 6 24q0 23 -17.5 35t-37.5 12v21h223v-21q-71 0 -96 -71l-469 -1285l-479 1278q-29 75 -94 78z" />
<glyph unicode="W" horiz-adv-x="1650" d="M31 1331v21h291v-21q-26 0 -44 -22t-18 -54q0 -6 4 -26l266 -869l326 1004l313 -1002l271 867q0 3 3 18t3 21q0 28 -15 45.5t-34 17.5v21h223v-21q-39 0 -68.5 -32.5t-40.5 -77.5l-372 -1229l-320 1007l-319 -1009l-375 1229q-12 43 -38 77.5t-56 34.5z" />
<glyph unicode="X" horiz-adv-x="1052" d="M23 0v20q28 0 68 32.5t63 68.5l290 557l-284 532q-3 5 -15 24t-18 28t-18 24.5t-21.5 23.5t-22 14.5t-24.5 6.5v21h291v-21q-14 0 -28.5 -17t-14.5 -40q0 -16 8 -29l231 -430l211 410q0 6 6 12q15 35 15 43q0 28 -18.5 39.5t-32.5 11.5v21h227v-21q-32 0 -63 -33.5 t-54 -78.5l-250 -478l320 -602q25 -46 59 -82.5t66 -36.5v-20h-291v20q13 0 25 17t12 39q0 16 -12 37l-261 487l-256 -487q-16 -32 -16 -60q0 -33 31 -33v-20h-223z" />
<glyph unicode="Y" horiz-adv-x="1083" d="M6 1331v21h283v-21q-15 -2 -27 -13t-12 -30q0 -10 6 -22l307 -539l295 510q14 32 14 45q-3 19 -14 31t-19 15t-14 3v21h219v-21q-47 0 -116 -114l-320 -553v-531q0 -34 20 -73.5t48 -39.5h10v-20h-293v20h10q30 0 49 38t19 75v512l-330 565q-80 121 -125 121h-10z" />
<glyph unicode="Z" horiz-adv-x="962" d="M35 0l680 1280h-475q-61 0 -96 -50.5t-35 -107.5h-21v230h825l-680 -1280h527q61 0 96 51t35 108h20v-231h-876z" />
<glyph unicode="[" horiz-adv-x="344" d="M68 -180v1700h251v-66h-139v-1569h139v-65h-251z" />
<glyph unicode="\" horiz-adv-x="681" d="M10 1442l76 20l578 -1562l-76 -25z" />
<glyph unicode="]" horiz-adv-x="356" d="M29 -115h143v1569h-143v66h256v-1700h-256v65z" />
<glyph unicode="^" horiz-adv-x="825" d="M45 985l363 361l362 -361l-82 -78l-280 285l-285 -285z" />
<glyph unicode="_" horiz-adv-x="868" d="M-4 -311h866v-66h-866v66z" />
<glyph unicode="`" horiz-adv-x="454" d="M49 1044l53 93l291 -219l-4 -13z" />
<glyph unicode="a" horiz-adv-x="935" d="M74 199q0 56 25.5 101.5t69 80.5t116.5 67t153.5 56.5t194.5 52.5q-3 61 -23 108t-47 73.5t-62.5 43t-65 22t-58.5 5.5q-93 0 -154 -50.5t-92 -119.5h-18v149q13 1 34.5 12.5t30.5 14.5q5 2 34.5 15.5t50.5 21t62.5 15t86.5 7.5q74 0 131.5 -12.5t95 -37t63 -54t39 -69.5 t18.5 -78t5 -84v-406q0 -44 19 -78.5t48 -34.5v-20h-198v104l-10 -10q-108 -108 -279 -108q-135 0 -202.5 59.5t-67.5 153.5zM205 215q0 -67 53 -109.5t139 -42.5q116 0 213 107l23 25v292l-21 -4q-407 -101 -407 -268z" />
<glyph unicode="b" horiz-adv-x="1052" d="M90 1276v20l205 64v-586q45 45 110.5 72.5t124.5 27.5q106 0 190.5 -37t136.5 -99t79 -139t27 -161q0 -85 -27.5 -165t-79.5 -144.5t-134.5 -103.5t-184.5 -39q-73 0 -138 30.5t-104 77.5v-94h-201v20q28 0 47 38.5t19 74.5v1045q0 29 -3 47t-19.5 34t-47.5 17zM295 309 q0 -112 79 -183t177 -71q138 9 212.5 112.5t74.5 244.5q0 100 -35.5 187.5t-109.5 145.5t-171 58q-89 0 -158 -71.5t-69 -168.5v-254z" />
<glyph unicode="c" horiz-adv-x="892" d="M74 430q0 118 54 218t162.5 163t250.5 63q107 0 202 -51q39 -22 72 -22v-156h-20q-19 74 -94.5 117t-159.5 43q-81 0 -146.5 -29.5t-105.5 -78.5t-61 -109.5t-21 -126.5q0 -103 42 -195t124.5 -151.5t187.5 -59.5q109 0 183.5 56.5t82.5 121.5h21v-159q-19 0 -64 -25 q-32 -18 -55.5 -29t-71 -22.5t-100.5 -11.5q-210 0 -346.5 127t-136.5 317z" />
<glyph unicode="d" horiz-adv-x="1050" d="M76 426q0 85 27.5 163.5t78.5 143t133.5 103t184.5 38.5q69 0 137 -25.5t106 -66.5v400q0 30 -3 47.5t-19 33.5t-47 17v20l205 64v-1231q0 -37 18 -75t47 -38v-20h-201v90q-96 -104 -239 -104q-105 0 -189 37.5t-135 100t-77.5 140t-26.5 162.5zM207 455q0 -72 21 -141.5 t59 -127.5t98 -94.5t133 -38.5q88 0 156.5 65t68.5 156v281q0 73 -41 132t-98 88.5t-112 29.5q-66 0 -121 -31.5t-90 -82t-54.5 -112t-19.5 -124.5z" />
<glyph unicode="e" d="M76 440q0 63 15.5 124t50 117.5t84.5 99t123 68t161 25.5q133 0 226 -60.5t136 -162t43 -237.5h-710q19 -153 111.5 -256t248.5 -103q62 0 126.5 22.5t117 67.5t68.5 103h18v-154q-17 0 -64 -28q-37 -22 -67.5 -36.5t-93 -29t-133.5 -14.5q-94 0 -175.5 27t-146 80.5 t-102 142.5t-37.5 204zM205 487h583q-3 83 -34.5 153.5t-97 118.5t-154.5 48t-156 -49t-99.5 -119t-41.5 -152z" />
<glyph unicode="f" horiz-adv-x="573" d="M45 791v69h102v166q0 44 1 72.5t5.5 67t12.5 63.5t23 52t36.5 42.5t54 26t74.5 10.5q48 0 87.5 -15t63 -30t32.5 -15v-149h-19q-10 58 -52.5 98.5t-86.5 40.5q-56 0 -76 -57t-20 -178v-195h231v-69h-231v-658q0 -36 18.5 -74.5t46.5 -38.5v-20h-266v20q28 0 46.5 38.5 t18.5 74.5v658h-102z" />
<glyph unicode="g" horiz-adv-x="1013" d="M76 209q0 86 78 147q-64 75 -64 170q0 147 114 247.5t279 100.5q84 0 161.5 -28.5t133.5 -77.5h148v-74h-95q43 -98 43 -159q0 -131 -116 -226.5t-281 -95.5q-160 0 -274 88q-39 -23 -39 -80q0 -120 211 -151l256 -41q155 -23 217.5 -77t62.5 -138q0 -89 -65 -152.5 t-160 -92t-205 -28.5q-165 0 -281 65t-116 179q0 108 139 197q-70 36 -108.5 97.5t-38.5 129.5zM219 -197q0 -84 85 -134t214 -50q126 0 215.5 44t89.5 110q0 32 -25 55.5t-91 42.5t-110.5 28.5t-149.5 27.5q-9 2 -13.5 2.5t-12 2t-13.5 2.5l-105 19q-44 -34 -64 -74.5 t-20 -75.5zM219 563q0 -86 47.5 -152t113 -97t132.5 -31q101 0 165 71.5t64 173.5q0 119 -86 197t-196 78q-100 0 -170 -67t-70 -173z" />
<glyph unicode="h" horiz-adv-x="1089" d="M90 1278v20l205 64v-592q98 113 264 113q74 0 135 -22t101 -57.5t68 -82.5t40 -95.5t12 -97.5v-395q0 -36 19 -74.5t47 -38.5v-20h-264v20q28 0 46.5 38.5t18.5 74.5v381q0 141 -71.5 217t-171.5 76q-95 0 -169.5 -68t-74.5 -170v-436q0 -36 18.5 -74.5t46.5 -38.5v-20 h-266v20q28 0 47 38.5t19 74.5v1047q0 29 -3 47t-19.5 34t-47.5 17z" />
<glyph unicode="i" horiz-adv-x="514" d="M117 801v18l205 66v-752q0 -37 18 -75t47 -38v-20h-266v20q29 0 47 38t18 75v567q0 22 -1.5 36t-8 30.5t-21 25t-38.5 9.5zM131 1081q0 42 27.5 70.5t68.5 28.5t70 -29t29 -70t-28.5 -67.5t-70.5 -26.5q-41 0 -68.5 26.5t-27.5 67.5z" />
<glyph unicode="j" horiz-adv-x="428" d="M-47 -408q61 40 110 101q113 140 113 319v686q0 30 -3 48t-19.5 35t-47.5 18v18l203 66v-840q0 -206 -174 -360q-76 -67 -174 -109zM129 1081q0 41 28.5 70t69.5 29t69 -29t28 -70t-27.5 -67.5t-69.5 -26.5t-70 26.5t-28 67.5z" />
<glyph unicode="k" horiz-adv-x="942" d="M98 1260v20l203 63v-854l332 312q10 10 10 24q0 15 -14 15v20h184v-20q-17 0 -51 -21l-29 -20l-291 -271l303 -383q23 -32 54 -63q62 -62 92 -62v-20h-117q-56 0 -117 49q-28 21 -49 49l-264 340l-43 -43v-266q0 -35 19.5 -72t48.5 -37v-20h-267v20q28 0 46 36.5t18 72.5 v1042q0 32 -19.5 60t-48.5 29z" />
<glyph unicode="l" horiz-adv-x="473" d="M96 1280v20l207 64v-1231q0 -36 19 -74.5t47 -38.5v-20h-269v20q29 0 48.5 38.5t19.5 74.5v1049q0 22 -2 35.5t-8.5 29.5t-22 24t-39.5 9z" />
<glyph unicode="m" horiz-adv-x="1583" d="M94 799v18l203 68v-105q88 101 227 101q184 0 281 -181q19 36 39.5 63.5t52.5 56.5t78 45t102 16q63 0 114 -14.5t84 -37t58 -56t38 -65t20.5 -70t9.5 -65.5t2 -57v-383q0 -37 17.5 -75t45.5 -38v-20h-266v20q29 0 48.5 38.5t19.5 74.5v442q0 99 -55.5 167.5t-151.5 68.5 q-52 0 -94.5 -25.5t-66.5 -62.5t-37 -73.5t-13 -63.5v-453q0 -36 18.5 -74.5t46.5 -38.5v-20h-264v20q28 0 47 38.5t19 74.5v455q0 96 -63 159.5t-146 63.5q-97 0 -154 -66.5t-57 -140.5v-471q0 -36 18.5 -74.5t46.5 -38.5v-20h-264v20q28 0 47 38.5t19 74.5v547 q0 119 -70 119z" />
<glyph unicode="n" horiz-adv-x="1089" d="M90 799v18l205 66v-113q98 113 264 113q74 0 135 -22t101 -57.5t68 -82.5t40 -95.5t12 -97.5v-395q0 -36 19 -74.5t47 -38.5v-20h-264v20q28 0 46.5 38.5t18.5 74.5v381q0 141 -71.5 217t-171.5 76q-92 0 -168 -67t-76 -152v-455q0 -36 18.5 -74.5t46.5 -38.5v-20h-266 v20q28 0 47 38.5t19 74.5v565q0 30 -3 48t-19.5 35t-47.5 18z" />
<glyph unicode="o" horiz-adv-x="1071" d="M76 424q0 199 130 324.5t329 125.5q196 0 321 -120.5t125 -309.5q0 -90 -30.5 -171.5t-86.5 -146t-144.5 -102.5t-197.5 -38q-200 0 -323 124t-123 314zM209 446q0 -102 40.5 -191.5t118 -145.5t175.5 -56q74 0 134.5 32.5t97.5 86t57 117.5t20 131q0 70 -21.5 137 t-62 123.5t-108 91.5t-150.5 35q-140 -7 -220.5 -113.5t-80.5 -247.5z" />
<glyph unicode="p" horiz-adv-x="1054" d="M94 -410q28 0 47 38.5t19 74.5v1036q0 24 -1 36.5t-7 29t-20 25t-38 10.5v20h201v-90q87 104 233 104q106 0 191 -37.5t137 -100.5t79.5 -140.5t27.5 -163.5q0 -67 -16 -130.5t-50 -121t-82.5 -100.5t-118 -68.5t-151.5 -25.5q-61 0 -127.5 32.5t-122.5 85.5v-401 q0 -36 18.5 -74.5t46.5 -38.5v-20h-266v20zM295 307q0 -106 78.5 -179t173.5 -73q92 3 157.5 55.5t94 128t28.5 164.5q0 100 -35 190.5t-106 151t-162 60.5t-160 -65.5t-69 -164.5v-268z" />
<glyph unicode="q" horiz-adv-x="1052" d="M82 432q0 83 30 162t83.5 141.5t134.5 100.5t176 38q69 0 140 -32.5t114 -79.5l121 129v-1188q0 -37 18 -75t47 -38v-20h-266v20q29 0 47 38t18 75v387q-40 -51 -94 -77.5t-141 -26.5q-105 0 -189 38t-135 102t-77.5 142t-26.5 164zM215 459q0 -98 35 -187.5t107 -151.5 t165 -65q88 0 155.5 65t67.5 156v279q0 112 -75.5 180t-173.5 68q-86 0 -151.5 -51t-97.5 -128.5t-32 -164.5z" />
<glyph unicode="r" horiz-adv-x="690" d="M86 797v16l207 61v-122q45 56 93.5 89t119.5 33q28 0 72 -12t75 -26l-61 -125q-23 38 -48 49.5t-65 11.5t-92.5 -33.5t-93.5 -74.5v-533q0 -36 18.5 -73.5t46.5 -37.5v-20h-266v20q28 0 47 37.5t19 73.5v571q0 32 -19.5 60t-52.5 35z" />
<glyph unicode="s" horiz-adv-x="841" d="M74 639q0 103 81 169t251 66q109 0 196 -40q37 -21 78 -21v-143h-16q-35 65 -110 101t-159 36q-95 0 -144.5 -42.5t-49.5 -96.5q0 -32 18.5 -57.5t55.5 -46t73 -34.5t90 -30q40 -13 67 -22t63.5 -24.5t61 -29.5t50.5 -35t42 -43t26 -51t10 -62q0 -104 -99.5 -176.5 t-240.5 -72.5q-128 0 -238 71q-59 39 -98 39v156h20q13 -61 109.5 -127t191.5 -66q52 0 100.5 14.5t85 49.5t36.5 84q0 30 -15.5 56t-36 43t-59.5 35t-65.5 27.5t-73.5 24.5q-44 14 -73 24.5t-68 27t-64 34.5t-49 42t-35.5 54t-11.5 66z" />
<glyph unicode="t" horiz-adv-x="583" d="M43 791v69h115v182q0 18 -0.5 28.5t-4.5 25t-11 22.5t-20.5 14t-33.5 7v20l205 66v-365h229v-69h-229v-494q0 -49 1 -79t6 -61.5t13.5 -48.5t24 -27.5t37.5 -10.5q43 0 80.5 41t48.5 98h18v-150q-18 0 -30 -12q-19 -15 -29 -21.5t-40 -16t-67 -9.5q-32 0 -59 6.5 t-46.5 16t-34.5 28t-24.5 33.5t-16.5 42.5t-10 45t-5 51t-2 50.5v53v465h-115z" />
<glyph unicode="u" horiz-adv-x="1073" d="M100 799v18l207 66v-523q0 -149 65 -226t169 -77q50 0 94.5 23.5t72.5 57t44 67.5t16 57v436q0 19 -0.5 29t-4 26t-11 24.5t-21.5 15t-35 6.5v18l207 66v-750q0 -36 17.5 -74.5t46.5 -38.5v-20h-199v113q-91 -131 -244 -131q-66 0 -119.5 14.5t-89.5 38.5t-62.5 59 t-41.5 71t-24.5 80.5t-12 81t-2.5 79.5v292q0 19 -0.5 29t-4 26t-11 24.5t-21.5 15t-35 6.5z" />
<glyph unicode="v" horiz-adv-x="954" d="M23 840v20h280v-20q-15 0 -33 -13t-18 -34q0 -8 16 -48l236 -530l254 553q8 19 8 31q0 17 -16.5 29t-30.5 12v20h201v-20q-45 0 -101 -109l-352 -766l-350 774q-42 101 -94 101z" />
<glyph unicode="w" horiz-adv-x="1380" d="M25 840v20h280v-20q-18 0 -37.5 -15.5t-19.5 -42.5q0 -18 10 -41l201 -495l258 637l260 -637l203 504q10 33 10 43q0 44 -45 47v20h203v-20q-35 0 -55 -19t-38 -63l-309 -774l-264 647l-262 -645l-303 749q-40 105 -92 105z" />
<glyph unicode="x" horiz-adv-x="954" d="M23 0v20q28 0 59.5 23t56.5 57l248 336l-229 312q-25 29 -36.5 41.5t-38 31.5t-46.5 19v20h299v-20q-15 0 -27 -9t-12 -30q0 -14 12 -29l166 -229l158 209q24 28 24 55q0 13 -7.5 23t-20.5 10v20h196v-20q-7 0 -14 -1.5t-14.5 -6l-12.5 -7.5t-13 -11t-12 -11.5t-13 -13.5 t-11 -13t-11.5 -15t-10.5 -13l-199 -265l274 -370q27 -38 64.5 -65.5t67.5 -27.5v-20h-302v20q39 0 39 29q0 10 -24 45l-205 283l-213 -289q-22 -27 -22 -47q0 -21 22 -21v-20h-192z" />
<glyph unicode="y" horiz-adv-x="970" d="M33 840v20h270v-20q-9 0 -21 -15.5t-12 -36.5q0 -17 9 -32l251 -580l242 592q6 15 6 27q0 19 -13 32t-28 13v20h199v-20q-30 0 -54.5 -25.5t-39.5 -64.5l-422 -1043q-50 -147 -164 -147q-52 0 -91 24.5t-44 40.5l67 166q6 -25 21 -55q27 -53 74 -53q50 0 77 71l101 252 l-330 746q-37 88 -98 88z" />
<glyph unicode="z" horiz-adv-x="878" d="M27 0l561 788h-336q-65 0 -108.5 -48.5t-43.5 -98.5h-20v219h723l-561 -786h381q82 0 121.5 45.5t39.5 101.5h19v-221h-776z" />
<glyph unicode="{" horiz-adv-x="526" d="M18 662v20q51 4 86.5 12.5t59.5 26t37.5 36.5t20.5 53t9 65t2 83v248q0 45 0.5 69t2 57.5t5 50t10 39.5t15.5 33.5t23 24.5t32 19t42.5 11.5t54 8t67.5 1.5h25v-19q-55 0 -89 -13.5t-49.5 -44t-19.5 -60.5t-4 -83v-241q0 -74 -3.5 -122t-14.5 -95.5t-31.5 -77.5t-55 -55 t-85.5 -41q31 -8 55.5 -19t43.5 -22t33 -28.5t24 -32.5t16 -40.5t10 -45t5.5 -54.5t2 -60.5t0.5 -70.5v-238q0 -46 2 -73.5t11 -57.5t26 -46t47.5 -27t75.5 -13v-20h-21q-55 0 -94 6t-67.5 14t-46 32t-28 42.5t-14.5 64.5t-5 79.5t-1 105.5v221q0 53 -2 84t-9 65.5t-20.5 53 t-37.5 36t-59.5 26t-86.5 12.5z" />
<glyph unicode="|" horiz-adv-x="319" d="M92 -180v1702h133v-1702h-133z" />
<glyph unicode="}" horiz-adv-x="526" d="M10 -160q45 2 75.5 13t47.5 27t26 46t11 57.5t2 73.5v238q0 46 0.5 70t2 60t5 54.5t10 45t16 41t23.5 32.5t33 29t44 22t56 19q-43 12 -74.5 29.5t-52 44.5t-33.5 55.5t-19.5 72.5t-8.5 85.5t-2 103.5v241q0 53 -4 83t-19.5 60.5t-49.5 44t-89 13.5v19h25q64 0 106.5 -5 t71.5 -23.5t43.5 -35t22.5 -61t9 -79t1 -110.5v-248q0 -52 2 -83t8.5 -65t20.5 -53t37.5 -36.5t59 -26t85.5 -12.5v-20q-50 -4 -85.5 -12.5t-59 -26t-37.5 -36t-20.5 -53t-8.5 -65.5t-2 -84v-221q0 -83 -1 -121t-9 -87t-23 -67t-44.5 -38.5t-72.5 -25.5t-108 -5h-21v20z" />
<glyph unicode="~" horiz-adv-x="1138" d="M76 578q93 231 274 231q47 0 95.5 -14.5t77 -28.5t79.5 -43q45 -26 70 -38.5t64 -25t75 -12.5q163 0 217 137l21 -4q-33 -111 -100.5 -171t-164.5 -60q-66 0 -124.5 22.5t-131.5 63.5q-5 3 -27.5 15t-29 15t-25.5 12.5t-29.5 12.5t-26.5 8.5t-30.5 7t-29.5 1.5 q-34 0 -65.5 -5.5t-66 -19.5t-61.5 -42t-41 -67z" />
<glyph unicode="&#xa2;" horiz-adv-x="892" d="M74 430q0 166 108 291t291 149v162h80v-158q102 -5 188 -49q54 -24 74 -24v-156h-20q-21 69 -91.5 112t-150.5 48v-750h25q98 0 169.5 57t79.5 121h21v-159q-17 0 -62 -25h-2q-101 -61 -231 -63v-166h-80v172q-175 28 -287 149.5t-112 288.5zM207 461q0 -126 75.5 -240 t190.5 -155v733q-126 -22 -196 -118.5t-70 -219.5z" />
<glyph unicode="&#xa3;" horiz-adv-x="952" d="M106 16q70 39 121 119q121 189 121 535v121h-158v69h158v166q0 156 66.5 246t169.5 90q61 0 135 -43q28 -19 41 -19v-149h-21q-22 65 -60.5 101t-76.5 36q-51 0 -86 -61t-35 -172v-195h232v-69h-232v-105q0 -175 -40 -312t-101 -216q68 22 96 22q22 0 48 -8.5t41 -15.5 t48 -25q70 -45 125 -45q54 0 123 78l17 -14q-76 -156 -211 -156q-49 0 -138 41q-6 0 -12 6q-85 39 -135 39q-59 0 -190 -64l-35 -20z" />
<glyph unicode="&#xa5;" horiz-adv-x="1083" d="M23 1329v21h268v-21q-14 0 -30.5 -12t-16.5 -33q0 -14 6 -20l311 -541l297 512q14 32 14 45q-3 19 -14 31t-19 15t-14 3v21h217v-21q-48 0 -116 -112l-287 -500h313v-78h-344v-172h344v-80h-344v-254q0 -34 20 -73.5t48 -39.5v-20h-273v20q30 0 49 38t19 75v254h-346v80 h346v172h-346v78h303l-285 491q-1 2 -9.5 14.5t-11.5 17.5t-11.5 17.5t-14 18.5t-14 16t-15 15t-14.5 11t-15.5 8.5t-14.5 2.5z" />
<glyph unicode="&#xa8;" horiz-adv-x="366" d="M0 979q0 28 19 46.5t47 18.5t46.5 -18.5t18.5 -46.5t-18.5 -47t-46.5 -19t-47 19t-19 47zM238 979q0 28 19 46.5t48 18.5q25 0 43.5 -19t18.5 -46t-18.5 -46.5t-43.5 -19.5q-29 0 -48 19t-19 47z" />
<glyph unicode="&#xa9;" horiz-adv-x="1527" d="M84 668q0 139 53 264t143 214.5t214 142t262 52.5q184 0 338 -89t243.5 -244t89.5 -340q0 -183 -89.5 -337t-244 -243.5t-337.5 -89.5q-137 0 -261.5 53t-214.5 142.5t-143 213.5t-53 261zM168 668q0 -118 47.5 -227.5t126.5 -189.5t188 -127.5t226 -47.5t225.5 47.5 t188 127.5t126.5 189.5t47 227.5q0 121 -47 231.5t-126.5 191t-187.5 128t-226 47.5q-157 0 -292.5 -80.5t-215.5 -218.5t-80 -299zM340 672q0 82 29.5 155.5t83 130t136 90t181.5 33.5q107 0 184 -43q39 -22 68 -22v-146h-21q-19 66 -87.5 107t-143.5 41t-132.5 -27 t-92 -72.5t-51.5 -101.5t-17 -119q0 -68 21 -133.5t59.5 -118.5t98.5 -85.5t132 -32.5q100 0 168 51.5t76 112.5l21 -3v-145q-17 0 -58 -25q-28 -17 -48.5 -27t-65 -20t-97.5 -10q-189 0 -316.5 118.5t-127.5 291.5z" />
<glyph unicode="&#xab;" horiz-adv-x="798" d="M100 442l287 365l16 -10l-159 -353l155 -356l-16 -10zM387 442l285 367l12 -10l-160 -355l158 -356l-16 -10z" />
<glyph unicode="&#xad;" horiz-adv-x="610" d="M59 422v102h465v-102h-465z" />
<glyph unicode="&#xae;" horiz-adv-x="1527" d="M84 668q0 139 53 264t143 214.5t214 142t262 52.5q184 0 338 -89t243.5 -244t89.5 -340q0 -183 -89.5 -337t-244 -243.5t-337.5 -89.5q-137 0 -261.5 53t-214.5 142.5t-143 213.5t-53 261zM168 668q0 -118 47.5 -227.5t126.5 -189.5t188 -127.5t226 -47.5t225.5 47.5 t188 127.5t126.5 189.5t47 227.5q0 121 -47 231.5t-126.5 191t-187.5 128t-226 47.5q-157 0 -292.5 -80.5t-215.5 -218.5t-80 -299zM420 262v19q27 0 44 35.5t17 70.5v574q0 34 -17 67t-44 33v18h282q167 0 251.5 -56.5t84.5 -137.5t-77.5 -146t-194.5 -77l170 -263 q76 -118 139 -118v-19h-43q-71 0 -120.5 29.5t-98.5 95.5l-86 135q-84 133 -84 137h-47v-272q0 -35 17 -70.5t44 -35.5v-19h-237zM596 721h100q130 0 183 43.5t53 109.5q0 58 -61 101t-164 43h-111v-297z" />
<glyph unicode="&#xb4;" horiz-adv-x="454" d="M49 918l291 219l53 -93l-338 -139z" />
<glyph unicode="&#xb8;" horiz-adv-x="475" d="M80 -344h22q77 0 134 34.5t57 78.5q0 34 -43 65t-115 41l80 129h68l-64 -106q85 -9 128.5 -42t43.5 -77q0 -60 -72.5 -104t-166.5 -44q-34 0 -72 9v16z" />
<glyph unicode="&#xbb;" horiz-adv-x="798" d="M104 801l17 8l287 -363l-283 -364l-16 10l155 357zM391 801l17 8l280 -363l-278 -364l-17 10l154 357z" />
<glyph unicode="&#x2c6;" horiz-adv-x="548" d="M29 922l250 211l249 -211l-2 -11l-247 121l-246 -121z" />
<glyph unicode="&#x2da;" horiz-adv-x="454" d="M78 1042q0 53 42 88t105 35t106.5 -35.5t43.5 -87.5t-43 -86t-107 -34q-63 0 -105 34t-42 86zM135 1055q0 -43 31 -73t74 -30q35 0 57 23.5t22 60.5t-33 68t-73 31q-32 0 -55 -24t-23 -56z" />
<glyph unicode="&#x2dc;" horiz-adv-x="581" d="M57 932q26 81 64.5 119.5t81.5 38.5q34 0 109.5 -40t109.5 -40q58 0 94 71l8 -2q-24 -91 -47 -120t-67 -29q-33 0 -118.5 41t-123.5 41q-19 0 -37 -12t-29.5 -25.5t-33.5 -44.5z" />
<glyph unicode="&#x401;" d="M92 0v20h10q28 0 49 37t21 72v1096q0 33 -21 69.5t-49 36.5h-10v21h789v-191h-21q-5 52 -39.5 85.5t-99.5 33.5h-412v-518h340q47 0 79 28.5t32 67.5h20v-256h-20q0 38 -31 64t-80 26h-340v-620h449q70 0 111.5 57t41.5 111h21v-240h-840zM340 1470q0 29 18.5 47.5 t47.5 18.5t47 -18.5t18 -47.5t-18 -47t-47 -18t-47.5 18t-18.5 47zM578 1470q0 29 18 47.5t47 18.5q27 0 45.5 -18.5t18.5 -47.5t-18.5 -47t-45.5 -18q-29 0 -47 18t-18 47z" />
<glyph unicode="&#x402;" horiz-adv-x="1249" d="M35 1128v224h938v-224h-21q0 56 -35 104t-96 48h-262v-504q92 109 238 109q79 0 141.5 -22.5t102.5 -59t66 -86.5t37 -102t11 -109v-184q0 -215 -176 -371q-70 -62 -174 -113l-10 19q59 42 110 108q113 152 113 332v281q0 98 -66.5 165.5t-167.5 67.5q-93 0 -159 -67 t-66 -158v-453q0 -36 20 -74.5t48 -38.5h10v-20h-291v20h10q28 0 47 38.5t19 74.5v1147h-236q-62 0 -97.5 -48t-35.5 -104h-18z" />
<glyph unicode="&#x403;" horiz-adv-x="942" d="M92 0v20h10q30 0 49 36.5t19 72.5v1096q0 34 -19.5 70t-48.5 36h-10v21h789v-191h-21q0 51 -33.5 85t-97.5 34h-420v-1151q0 -36 19 -72.5t49 -36.5h10v-20h-295zM340 1401l291 221l53 -94l-338 -139z" />
<glyph unicode="&#x404;" horiz-adv-x="1232" d="M80 674q0 103 28.5 202.5t88.5 189.5t145.5 158t209 108t269.5 40q87 0 219 -37q59 -20 107 -20v-228h-21q-12 61 -44.5 105t-78.5 65.5t-92 31t-98 9.5q-133 0 -242.5 -48t-180.5 -127.5t-113.5 -174t-55.5 -196.5h545q48 0 80.5 28.5t32.5 67.5h18v-256h-18 q0 37 -30.5 62.5t-82.5 25.5h-547q4 -118 53.5 -231.5t129.5 -201t192.5 -141t234.5 -53.5q42 0 88.5 11.5t97 37t93 74.5t63.5 115h21v-246q-41 0 -139 -25q-160 -40 -254 -40q-139 0 -257.5 40t-202 107.5t-143 157t-88 188.5t-28.5 201z" />
<glyph unicode="&#x405;" horiz-adv-x="1003" d="M74 1020q0 87 35 156.5t93.5 111t131 63t153.5 21.5q77 0 191 -24q89 -19 131 -19v-211h-21q-4 101 -80 141.5t-225 40.5q-77 0 -133 -27t-84 -69.5t-40.5 -84t-12.5 -81.5q0 -45 18 -82t42.5 -62t72 -51t81.5 -40t97 -37q44 -17 64 -25t61.5 -25.5t62 -30t55 -34 t52.5 -40.5t41 -47t34 -57t19.5 -66.5t8.5 -78.5q0 -79 -27 -144t-71 -107.5t-103.5 -72t-122.5 -42t-129 -12.5q-50 0 -103 9t-75 15.5t-72 22.5q-74 24 -113 24v234h21q0 -59 27 -103.5t64.5 -68.5t85 -39t80.5 -19t60 -4q84 0 150.5 25.5t105.5 68t59.5 93t20.5 104.5 q0 37 -10.5 69.5t-25 57t-43 48t-50.5 38.5t-63 34t-65.5 28.5t-71.5 27.5q-45 17 -70.5 27t-66.5 28t-65 33.5t-55.5 38t-50 46.5t-36 54t-25.5 66t-8 78z" />
<glyph unicode="&#x406;" horiz-adv-x="497" d="M100 0v20h11q30 0 48.5 37.5t18.5 75.5v1092q0 35 -19 70.5t-48 35.5h-11v21h295v-21h-16q-27 -4 -44.5 -38.5t-17.5 -67.5v-1092q0 -36 17.5 -74.5t44.5 -38.5h16v-20h-295z" />
<glyph unicode="&#x407;" horiz-adv-x="497" d="M70 1470q0 29 18 47.5t47 18.5t47.5 -18.5t18.5 -47.5t-18.5 -47t-47.5 -18t-47 18t-18 47zM100 0v20h11q30 0 48.5 37.5t18.5 75.5v1092q0 35 -19 70.5t-48 35.5h-11v21h295v-21h-16q-27 -4 -44.5 -38.5t-17.5 -67.5v-1092q0 -36 17.5 -74.5t44.5 -38.5h16v-20h-295z M307 1470q0 29 19.5 47.5t48.5 18.5q27 0 45 -18.5t18 -47.5t-18 -47t-45 -18q-30 0 -49 18t-19 47z" />
<glyph unicode="&#x408;" horiz-adv-x="552" d="M-27 -414q77 57 127 121q129 164 129 344v1172q0 35 -18.5 71.5t-46.5 36.5h-10v21h295v-21h-11q-28 0 -48.5 -37t-20.5 -71v-1141q0 -212 -193 -385q-76 -71 -192 -127z" />
<glyph unicode="&#x409;" horiz-adv-x="1738" d="M39 0v20q43 1 70.5 20.5t56.5 55.5l682 1127l16 28q17 34 17 54q0 23 -25 26h-16v21h293v-21h-15q-28 0 -47.5 -35.5t-19.5 -70.5v-463h92q504 0 504 -375q0 -76 -32.5 -144t-95.5 -123t-167 -87.5t-236 -32.5h-276v20h10q30 0 49 38t19 75v1069l-672 -1114 q-28 -46 -65.5 -67t-71.5 -21h-70zM1051 72q220 0 339 79t119 222q0 148 -107.5 233.5t-305.5 85.5h-45v-620z" />
<glyph unicode="&#x40a;" horiz-adv-x="1699" d="M94 0v20h10q28 0 47 38t19 75v1092q0 35 -18.5 70.5t-47.5 35.5h-10v21h283v-21h-17q-26 -4 -40.5 -39t-14.5 -67v-463h582v463q0 30 -16.5 66t-41.5 40h-16v21h283v-21h-17q-27 -4 -42 -39t-15 -67v-463h74q80 0 149 -10.5t135.5 -37t114 -68t76 -107.5t28.5 -152 q0 -117 -62.5 -206t-170 -135t-242.5 -46h-311v20h10q28 0 46 37.5t18 75.5v559h-582v-559q0 -35 16.5 -74t40.5 -39h15v-20h-283zM1022 72q210 4 324 84.5t114 222.5q0 148 -105.5 230.5t-305.5 82.5h-27v-620z" />
<glyph unicode="&#x40b;" horiz-adv-x="1314" d="M35 1122v230h938v-230h-21q0 57 -35 107.5t-96 50.5h-260v-506q93 113 240 113q78 0 140 -23.5t101.5 -62t65.5 -90t36.5 -104.5t10.5 -109v-365q0 -35 18 -74t46 -39h14v-20h-291v20h10q28 0 47 39t19 74v379q0 142 -67.5 221.5t-166.5 79.5q-79 0 -141.5 -51.5 t-81.5 -112.5v-516q0 -35 17.5 -74t44.5 -39h14v-20h-291v20h10q29 0 47.5 38t18.5 75v1147h-236q-62 0 -96.5 -50t-34.5 -108h-20z" />
<glyph unicode="&#x40c;" horiz-adv-x="1157" d="M92 0v20h10q29 0 48.5 38.5t19.5 74.5v1092q0 34 -19 70t-47 36h-10v21h293v-21h-10q-28 0 -49 -36.5t-21 -69.5v-475l520 516q13 16 13 32q0 33 -25 33h-10v21h250v-21h-11q-49 0 -120 -71l-430 -429l452 -686q13 -25 66.5 -75t105.5 -50v-20h-49q-81 0 -132 14 t-81.5 40.5t-64.5 78.5l-398 600l-86 -88v-512q0 -34 20 -73.5t48 -39.5h10v-20h-293zM356 1626h13q3 -16 14 -35.5t34 -43.5t67.5 -40t101.5 -16q59 0 102.5 15.5t66.5 41t32.5 42.5t15.5 36h12q0 -75 -65.5 -145t-161.5 -70q-93 0 -162.5 68.5t-69.5 146.5z" />
<glyph unicode="&#x40d;" horiz-adv-x="1300" d="M92 0v20h10q30 0 49 38t19 75v1092q0 34 -19.5 70t-48.5 36h-10v21h291v-21h-16q-27 -4 -44.5 -39t-17.5 -67v-946l680 919v27q0 35 -19 70.5t-48 35.5h-11v21h291v-21h-10q-28 0 -48 -36t-20 -70v-1092q0 -34 20 -73.5t48 -39.5h10v-20h-291v20h11q30 0 48.5 37.5 t18.5 75.5v938l-680 -919v-19q0 -36 20 -74.5t48 -38.5h10v-20h-291zM477 1536l53 92l291 -219l-4 -12z" />
<glyph unicode="&#x40e;" horiz-adv-x="1114" d="M14 1331v21h285v-21h-12q-39 0 -39 -41q0 -12 6 -30l350 -766l314 743q10 30 10 43q0 26 -17.5 38.5t-33.5 12.5v21h219v-21q-53 0 -84 -59l-494 -1176q-47 -114 -153 -114q-37 1 -71 16.5t-49.5 29.5t-15.5 17l52 113q37 -82 98 -82q47 0 72 55l79 195l-426 940 q-27 62 -90 65zM371 1628h12q3 -16 14 -35.5t34 -43.5t67.5 -40t101.5 -16q59 0 102.5 15.5t66.5 41t32.5 42.5t15.5 36h12q0 -75 -65.5 -145t-161.5 -70q-93 0 -162 68.5t-69 146.5z" />
<glyph unicode="&#x40f;" horiz-adv-x="1253" d="M92 0v20h10q28 0 46 36t18 71v1092q0 36 -18 74t-46 38h-10v21h287v-21h-19q-28 -4 -42.5 -39.5t-14.5 -72.5v-1147h635v1147q0 36 -18 74t-46 38h-10v21h287v-21h-16q-28 -4 -44 -40t-16 -72v-1092q0 -34 19 -70.5t47 -36.5h10v-20h-373q-62 0 -105.5 -62.5 t-43.5 -121.5h-21q0 59 -44 121.5t-107 62.5h-365z" />
<glyph unicode="&#x410;" horiz-adv-x="1208" d="M29 0v20h10q25 0 50 30.5t44 76.5l469 1249l459 -1237q39 -119 106 -119h11v-20h-304v20h11q49 0 49 46q0 16 -6 34l-185 498h-358l-178 -489q-6 -15 -6 -31q0 -25 13.5 -41.5t31.5 -16.5h10v-20h-227zM406 668h315l-158 428z" />
<glyph unicode="&#x411;" horiz-adv-x="1021" d="M92 0v20h10q28 0 49 37t21 72v1096q0 33 -21 69.5t-49 36.5h-10v21h750v-195h-21q0 51 -34.5 85t-98.5 34h-379v-498h94q80 0 151.5 -11t141 -39t119.5 -71t80.5 -112.5t30.5 -157.5q0 -178 -128 -282.5t-333 -104.5h-373zM309 72h80q196 0 296.5 81.5t100.5 215.5 q0 153 -108 246.5t-301 93.5h-68v-637z" />
<glyph unicode="&#x412;" horiz-adv-x="1001" d="M88 1331v21h336q189 0 297 -83.5t108 -224.5q0 -56 -20 -105.5t-53.5 -85.5t-67 -60.5t-70.5 -42.5q82 -15 143 -54t94.5 -91t49 -107t15.5 -113q0 -82 -25.5 -148.5t-68.5 -110t-103 -72.5t-125.5 -41.5t-138.5 -12.5h-367v20h10q28 0 47 38.5t19 74.5v1090 q0 35 -19.5 71.5t-50.5 36.5h-10zM305 68h119q166 0 261 74.5t95 207.5v23q-17 160 -107.5 244.5t-252.5 84.5h-115v-634zM305 768h107q65 0 116 15t82 39t51 57t27.5 65.5t7.5 67.5v14q-6 119 -83 188.5t-205 69.5h-103v-516z" />
<glyph unicode="&#x413;" horiz-adv-x="911" d="M92 0v20h10q30 0 49 36.5t19 72.5v1096q0 34 -19.5 70t-48.5 36h-10v21h789v-217h-21q0 74 -32 109.5t-99 35.5h-420v-1151q0 -36 19 -72.5t49 -36.5h10v-20h-295z" />
<glyph unicode="&#x414;" horiz-adv-x="1425" d="M41 72h90q66 0 92 75l471 1235l475 -1228q15 -34 41 -58t56 -24h86v-256h-21q-5 63 -51.5 123.5t-110.5 60.5h-944q-62 0 -110.5 -62.5t-53.5 -121.5h-20v256zM268 72h789l-395 1018z" />
<glyph unicode="&#x415;" d="M92 0v20h10q28 0 49 37t21 72v1096q0 33 -21 69.5t-49 36.5h-10v21h789v-191h-21q-5 52 -39.5 85.5t-99.5 33.5h-412v-518h340q47 0 79 28.5t32 67.5h20v-256h-20q0 38 -31 64t-80 26h-340v-620h449q70 0 111.5 57t41.5 111h21v-240h-840z" />
<glyph unicode="&#x416;" horiz-adv-x="1701" d="M25 0v20q34 0 65.5 19t60.5 58.5t41 60t34 62.5q3 6 5 9l162 328q49 102 125 153.5t195 51.5l-461 485q-78 82 -139 84v21h223v-21q-23 -7 -23 -22q0 -7 9 -19l454 -487v422q0 35 -18 70.5t-47 35.5h-11v21h289v-21h-16q-27 -4 -44.5 -38.5t-17.5 -67.5v-422l457 487 q8 8 8 19q0 22 -24 22v21h223v-21q-69 -9 -137 -84l-461 -485q123 0 195.5 -50t125.5 -155l160 -328q18 -37 32.5 -61.5t42.5 -64.5t62 -61.5t70 -21.5v-20h-96q-43 0 -79 12.5t-58.5 28t-46.5 48t-35.5 53.5t-32.5 63l-164 330q-89 174 -242 174v-576q0 -35 18 -74t46 -39 h14v-20h-289v20h11q29 0 47 37.5t18 75.5v576q-152 0 -239 -174l-164 -330q-23 -48 -40.5 -77.5t-47.5 -62.5t-71 -49t-95 -16h-94z" />
<glyph unicode="&#x417;" horiz-adv-x="948" d="M23 47v227h20q35 -110 118.5 -165.5t188.5 -55.5q87 0 165 36t128.5 107t50.5 160q0 144 -102.5 247.5t-255.5 103.5h-74v69h84q128 0 216.5 70t88.5 188q0 117 -85.5 190.5t-196.5 73.5q-91 0 -166.5 -54t-106.5 -157h-20v228h18q24 0 80 18q124 39 221 39 q185 0 294.5 -95.5t109.5 -234.5q0 -190 -207 -297q135 -60 201.5 -153.5t66.5 -208.5q0 -81 -34 -153.5t-96.5 -128.5t-157.5 -88.5t-210 -32.5q-131 0 -231 45q-52 22 -90 22h-18z" />
<glyph unicode="&#x418;" horiz-adv-x="1300" d="M92 0v20h10q30 0 49 38t19 75v1092q0 34 -19.5 70t-48.5 36h-10v21h291v-21h-16q-27 -4 -44.5 -39t-17.5 -67v-946l680 919v27q0 35 -19 70.5t-48 35.5h-11v21h291v-21h-10q-28 0 -48 -36t-20 -70v-1092q0 -34 20 -73.5t48 -39.5h10v-20h-291v20h11q30 0 48.5 37.5 t18.5 75.5v938l-680 -919v-19q0 -36 20 -74.5t48 -38.5h10v-20h-291z" />
<glyph unicode="&#x419;" horiz-adv-x="1300" d="M92 0v20h10q30 0 49 38t19 75v1092q0 34 -19.5 70t-48.5 36h-10v21h291v-21h-16q-27 -4 -44.5 -39t-17.5 -67v-946l680 919v27q0 35 -19 70.5t-48 35.5h-11v21h291v-21h-10q-28 0 -48 -36t-20 -70v-1092q0 -34 20 -73.5t48 -39.5h10v-20h-291v20h11q30 0 48.5 37.5 t18.5 75.5v938l-680 -919v-19q0 -36 20 -74.5t48 -38.5h10v-20h-291zM414 1620h12q3 -16 14 -35.5t34 -43.5t67.5 -40t101.5 -16q59 0 102.5 15.5t66.5 41t32.5 42.5t15.5 36h12q0 -75 -65.5 -145t-161.5 -70q-93 0 -162 68.5t-69 146.5z" />
<glyph unicode="&#x41a;" horiz-adv-x="1146" d="M92 0v20h10q29 0 48.5 38.5t19.5 74.5v1092q0 34 -19 70t-47 36h-10v21h291v-21h-10q-28 0 -49 -36.5t-21 -69.5v-424l475 473q17 17 17 39q0 18 -17 18v21h221v-21q-38 -1 -68 -21t-73 -63l-485 -485q245 -8 344 -205l162 -328q36 -77 99 -143t136 -66v-20h-102 q-56 0 -101.5 17t-78 49.5t-53 63.5t-42.5 75l-166 330q-76 150 -268 159v-561q0 -37 18 -73t46 -40h14v-20h-291z" />
<glyph unicode="&#x41b;" horiz-adv-x="1323" d="M31 0v20q33 0 81.5 35t77.5 103l388 1061q10 33 10 47q0 29 -16.5 47t-36.5 18v21h167l459 -1254q11 -31 40 -54t63 -24v-20h-293v20q19 0 35 14t16 36q0 2 -4 18l-385 1061l-367 -1006q-50 -143 -172 -143h-63z" />
<glyph unicode="&#x41c;" horiz-adv-x="1591" d="M94 0v20h10q28 0 46 38t18 75v1092q0 35 -18 70.5t-46 35.5h-10v21h209l475 -1121l475 1121h232v-21h-10q-29 0 -48.5 -36t-19.5 -70v-1092q0 -36 19.5 -74.5t48.5 -38.5h10v-20h-291v20h10q28 0 47 38.5t19 74.5v1077l-529 -1233l-501 1170v-1014q0 -37 19 -75t48 -38 h10v-20h-223z" />
<glyph unicode="&#x41d;" horiz-adv-x="1273" d="M117 0v20h10q28 0 47 38t19 75v1092q0 35 -18.5 70.5t-47.5 35.5h-10v21h286v-21h-10q-29 0 -46 -35t-17 -71v-463h655v463q0 35 -18 70.5t-47 35.5h-11v21h287v-21h-10q-29 0 -46.5 -35.5t-17.5 -70.5v-1092q0 -35 19 -74t45 -39h10v-20h-287v20h11q28 0 46.5 38 t18.5 75v557h-655v-557q0 -37 17.5 -75t45.5 -38h10v-20h-286z" />
<glyph unicode="&#x41e;" horiz-adv-x="1558" d="M76 662q0 106 30 209t90 193.5t143 159t197.5 108.5t245.5 40q124 0 234 -36.5t192 -101t141.5 -151t90 -190t30.5 -213.5q0 -200 -97 -361.5t-260.5 -250t-358.5 -88.5q-153 0 -282.5 57t-215 152t-133 218t-47.5 255zM213 690q0 -113 43.5 -227t117 -205.5t181 -149 t225.5 -57.5q106 5 197.5 43t155.5 98t109.5 137.5t67 160t21.5 165.5q0 114 -41.5 228t-114.5 207t-183 151.5t-236 58.5q-98 0 -186 -36.5t-152 -98t-111 -140t-70.5 -165t-23.5 -170.5z" />
<glyph unicode="&#x41f;" horiz-adv-x="1243" d="M92 0v20h10q29 0 47.5 37.5t18.5 75.5v1092q0 33 -19.5 69.5t-46.5 36.5h-10v21h1049v-21h-17q-25 0 -41 -36.5t-16 -69.5v-1092q0 -22 5.5 -46.5t19 -45.5t32.5 -21h17v-20h-287v20h18q28 0 43 37.5t15 75.5v1147h-625v-1147q0 -37 17.5 -75t46.5 -38h10v-20h-287z" />
<glyph unicode="&#x420;" horiz-adv-x="925" d="M90 0v20h10q28 0 46 38t18 75v1092q0 33 -18 67.5t-46 38.5h-10v21h291q226 0 344.5 -86.5t118.5 -247.5q0 -83 -41 -153t-107.5 -115t-148.5 -70t-166 -25h-78v-522q0 -36 19 -74.5t47 -38.5h10v-20h-289zM303 727h62q157 0 249.5 78.5t92.5 183.5q0 61 -20 111.5 t-62.5 92t-117 64.5t-175.5 23h-29v-553z" />
<glyph unicode="&#x421;" horiz-adv-x="1275" d="M80 674q0 103 28.5 202.5t88.5 189.5t145.5 158t209 108t269.5 40q87 0 219 -37q59 -20 107 -20v-228h-21q-12 61 -44.5 105t-78.5 65.5t-92 31t-98 9.5q-117 0 -216 -35.5t-167.5 -95t-117 -138t-71 -164t-22.5 -173.5q0 -120 48 -236t128.5 -205t194.5 -143.5 t239 -54.5q44 0 88.5 8.5t96.5 30.5t94 68t63 112h21v-227q-33 0 -139 -27q-152 -38 -254 -38q-139 0 -257.5 40t-202 107.5t-143 157t-88 188.5t-28.5 201z" />
<glyph unicode="&#x422;" horiz-adv-x="958" d="M18 1128v224h920v-224h-20q0 54 -35.5 101t-96.5 47h-241v-1143q0 -36 18.5 -74.5t46.5 -38.5h11v-20h-291v20h10q29 0 48.5 38.5t19.5 74.5v1143h-238q-61 0 -96 -47t-35 -101h-21z" />
<glyph unicode="&#x423;" horiz-adv-x="1114" d="M14 1331v21h285v-21h-12q-39 0 -39 -41q0 -12 6 -30l350 -766l314 743q10 30 10 43q0 26 -17.5 38.5t-33.5 12.5v21h219v-21q-55 0 -86 -59l-492 -1176q-47 -114 -153 -114q-36 -1 -69.5 15t-51.5 32t-15 16l52 113q37 -82 98 -82q47 0 72 55l79 195l-426 940 q-27 62 -90 65z" />
<glyph unicode="&#x424;" horiz-adv-x="1564" d="M76 676q0 155 86 276t229.5 186t319.5 70v11q0 34 -19.5 71t-46.5 41h-12v21h289v-21h-17q-27 -4 -44 -40.5t-17 -71.5v-11q184 -5 329 -76t224.5 -190.5t79.5 -265.5q0 -154 -89.5 -278t-233 -191t-310.5 -70v-10q0 -35 19 -71t48 -36h11v-20h-289v20h10q28 0 48 36.5 t20 70.5v10q-187 5 -332.5 77t-224 192.5t-78.5 269.5zM209 696q0 -119 70.5 -231t187.5 -183.5t244 -76.5v936q-119 -2 -217 -42.5t-158.5 -104.5t-93.5 -141t-33 -157zM844 205q111 4 206 43.5t157.5 102.5t98 142t35.5 162q0 120 -66 230t-181.5 180.5t-249.5 75.5v-936z " />
<glyph unicode="&#x425;" horiz-adv-x="1052" d="M23 0v20q28 0 68 32.5t63 68.5l290 557l-284 532q-3 5 -15 24t-18 28t-18 24.5t-21.5 23.5t-22 14.5t-24.5 6.5v21h291v-21q-14 0 -28.5 -17t-14.5 -40q0 -16 8 -29l231 -430l211 410q0 6 6 12q15 35 15 43q0 28 -18.5 39.5t-32.5 11.5v21h227v-21q-32 0 -63 -33.5 t-54 -78.5l-250 -478l320 -602q25 -46 59 -82.5t66 -36.5v-20h-291v20q13 0 25 17t12 39q0 16 -12 37l-261 487l-256 -487q-16 -32 -16 -60q0 -33 31 -33v-20h-223z" />
<glyph unicode="&#x426;" horiz-adv-x="1280" d="M90 0v20h10q33 0 48.5 36.5t15.5 76.5v1086q0 40 -15.5 76t-48.5 36h-10v21h289v-21h-21q-29 -4 -43 -39t-14 -73v-1147h617v1147q0 37 -15.5 72.5t-46.5 39.5h-12v21h284v-21h-18q-28 -4 -41.5 -39t-13.5 -73v-1037q0 -46 23 -78t69 -32h102v-256h-20q-3 39 -21 79 t-59 72.5t-94 32.5h-965z" />
<glyph unicode="&#x427;" horiz-adv-x="1126" d="M82 1331v21h285v-21h-11q-28 0 -48.5 -36t-20.5 -70v-250q0 -129 93.5 -215t209.5 -86q95 0 219 88v463q0 33 -16 67.5t-41 38.5h-17v21h291v-21h-16q-28 -4 -46 -39t-18 -67v-1096q0 -34 18 -69.5t46 -39.5h16v-20h-293v20h10q28 0 47 36.5t19 72.5v545 q-48 -36 -117 -62t-141 -26q-181 0 -291 116t-110 285v238q0 34 -17 70t-41 36h-10z" />
<glyph unicode="&#x428;" horiz-adv-x="1738" d="M94 0v20h10q28 0 46 36t18 71v1092q0 39 -16 75.5t-48 36.5h-10v21h281v-21h-15q-29 -4 -43 -39t-14 -73v-1145h492v1145q0 37 -17 74.5t-45 37.5h-10v21h281v-21h-11q-29 0 -46 -35t-17 -67v-1155h491v1145q0 38 -14 73t-43 39h-14v21h280v-21h-10q-32 0 -48 -36.5 t-16 -75.5v-1092q0 -33 19 -70t45 -37h10v-20h-1536z" />
<glyph unicode="&#x429;" horiz-adv-x="1781" d="M94 1331v21h281v-21h-10q-30 0 -46 -37t-16 -75v-1147h494v1147q0 36 -16 72t-46 40h-12v21h281v-21h-11q-27 0 -44 -37t-17 -65v-1157h491v1147q0 38 -16 75t-47 37h-10v21h280v-21h-14q-29 -4 -43 -39.5t-14 -72.5v-1037q0 -46 22.5 -78t69.5 -32h100v-256h-20 q-5 66 -56 125t-119 59h-1460v20h10q22 0 36.5 19.5t20 42t5.5 45.5v1092q0 22 -6 46.5t-21 45t-37 20.5h-10z" />
<glyph unicode="&#x42a;" horiz-adv-x="1142" d="M23 1147v205h475v-21h-11q-28 0 -47.5 -38.5t-19.5 -73.5v-441h115q80 0 150 -11t136.5 -39t113 -71.5t75 -112t28.5 -157.5q0 -117 -62.5 -206t-170 -135t-242.5 -46h-356v20h10q29 0 47.5 36t18.5 71v1149h-107q-63 0 -98 -38.5t-35 -90.5h-20zM420 72h31 q442 0 442 307q0 150 -105 240t-299 90h-69v-637z" />
<glyph unicode="&#x42b;" horiz-adv-x="1458" d="M96 0v20h10q27 0 46.5 36.5t19.5 70.5v1092q0 36 -19 74t-47 38h-10v21h289v-21h-14q-27 -4 -44.5 -41t-17.5 -71v-441h115q80 0 150.5 -12t136.5 -41t113 -72.5t75.5 -111.5t28.5 -154q0 -176 -134.5 -281.5t-340.5 -105.5h-357zM309 72h31q444 0 444 307 q0 150 -105.5 240t-301.5 90h-68v-637zM1065 0v20h10q29 0 47.5 37.5t18.5 75.5v1092q0 35 -18.5 70.5t-47.5 35.5h-10v21h289v-21h-17q-27 -4 -43 -38.5t-16 -67.5v-1092q0 -37 17 -73t44 -40h15v-20h-289z" />
<glyph unicode="&#x42c;" horiz-adv-x="999" d="M92 0v20h10q27 0 46.5 36.5t19.5 70.5v1092q0 36 -19 74t-47 38h-10v21h289v-21h-14q-27 -4 -44.5 -41t-17.5 -71v-441h115q80 0 150.5 -12t136.5 -41t113 -72.5t75.5 -111.5t28.5 -154q0 -176 -134.5 -281.5t-340.5 -105.5h-357zM305 72h31q444 0 444 307 q0 150 -105.5 240t-301.5 90h-68v-637z" />
<glyph unicode="&#x42d;" horiz-adv-x="1230" d="M39 45v209h20q18 -52 53 -91.5t73 -61t85 -34.5t81.5 -16.5t70.5 -3.5q125 0 235 53.5t186.5 142.5t121.5 206t47 243h-531q-50 0 -81 -26t-31 -64h-19v256h19q0 -39 32 -67.5t80 -28.5h529q-10 80 -39.5 156.5t-81.5 146t-120.5 121.5t-163.5 83t-204 31 q-43 0 -76.5 -3.5t-72.5 -15t-66.5 -31.5t-50 -56t-31.5 -86h-20v209q37 0 100 18q132 37 232 37q147 0 269.5 -36.5t207 -99t143 -146.5t86 -179t27.5 -198q0 -201 -98 -372t-269 -271.5t-374 -100.5q-136 0 -279 54q-68 22 -90 22z" />
<glyph unicode="&#x42e;" horiz-adv-x="1880" d="M94 1331v21h289v-21h-16q-27 -4 -44.5 -40t-17.5 -66v-463h135q15 94 52 182.5t97 166.5t137 136t179 91.5t215 33.5q155 0 283 -56t211.5 -151.5t128.5 -220.5t45 -264q0 -151 -54 -282t-146.5 -222.5t-221 -143.5t-274.5 -52q-152 0 -278.5 57t-208 152.5t-126.5 217.5 t-45 255v30h-129v-559q0 -34 19.5 -73.5t46.5 -39.5h14v-20h-289v20h10q27 0 44.5 38.5t17.5 74.5v1092q0 33 -19 69.5t-45 36.5h-10zM569 690q0 -113 40.5 -227t111 -205.5t175 -149t222.5 -57.5q107 5 197 43t151.5 98t104 137.5t62.5 159.5t20 166q0 91 -24.5 182.5 t-72.5 174.5t-114 147.5t-156.5 102.5t-191.5 38q-97 0 -183 -36.5t-147.5 -98t-106 -140.5t-66.5 -164.5t-22 -170.5z" />
<glyph unicode="&#x42f;" horiz-adv-x="1144" d="M18 0v20q58 0 115.5 35.5t94.5 79.5t65 94l162 291q47 80 77 110q37 38 89 60q-167 12 -266 101t-99 213q0 155 134 251.5t358 96.5h294v-21h-10q-28 0 -45.5 -35.5t-17.5 -70.5v-1092q0 -37 17.5 -75t45.5 -38h10v-20h-288v20h10q28 0 47.5 38.5t19.5 74.5v555 q-83 -7 -151 -84t-137 -209q-13 -22 -48.5 -83.5t-54.5 -96.5q-53 -97 -133.5 -156t-179.5 -59h-109zM385 1034q0 -118 91.5 -196t225.5 -78h129v522h-30q-198 0 -307 -65.5t-109 -182.5z" />
<glyph unicode="&#x430;" horiz-adv-x="935" d="M74 199q0 56 25.5 101.5t69 80.5t116.5 67t153.5 56.5t194.5 52.5q-3 61 -23 108t-47 73.5t-62.5 43t-65 22t-58.5 5.5q-98 0 -159.5 -52t-86.5 -128h-18v159q16 0 43.5 13.5t57 29.5t83.5 29.5t115 13.5q74 0 131.5 -12.5t95 -37t63 -54t39 -69.5t18.5 -78t5 -84v-406 q0 -44 21 -78.5t55 -34.5v-20h-207v104l-10 -10q-108 -108 -279 -108q-135 0 -202.5 59.5t-67.5 153.5zM205 215q0 -67 53 -109.5t139 -42.5q116 0 213 107l23 25v292l-21 -4q-407 -101 -407 -268z" />
<glyph unicode="&#x431;" horiz-adv-x="1071" d="M78 506q0 122 28.5 216.5t92.5 199.5q86 134 215.5 212t265.5 78h260l-80 -131h-213q-136 0 -256.5 -95.5t-173.5 -258.5q60 73 133.5 110t184.5 37q202 0 324 -123.5t122 -314.5q0 -199 -130 -324.5t-329 -125.5q-203 0 -323.5 147t-120.5 373zM209 440q0 -66 24 -133.5 t66.5 -124t108 -92t139.5 -35.5q144 7 225.5 113t81.5 246q0 157 -96 273t-244 116q-95 0 -166.5 -55t-105 -136t-33.5 -172z" />
<glyph unicode="&#x432;" horiz-adv-x="931" d="M92 0v20q29 0 48.5 38.5t19.5 74.5v598q0 37 -19 73t-49 36v20h418q70 0 125.5 -19t87 -50t47.5 -65.5t16 -70.5q0 -64 -47 -118t-108 -78q37 -6 72.5 -22.5t69 -43t53.5 -68.5t20 -94q0 -25 -7.5 -53t-29 -60.5t-54 -58t-87.5 -42.5t-125 -17h-451zM293 66h201 q25 0 49 2.5t57.5 13t57.5 27.5t41.5 49t17.5 75q0 45 -23 80t-56 54.5t-75.5 31.5t-74 15.5t-58.5 3.5h-137v-352zM293 485h158q109 0 160 45.5t51 114.5q0 54 -59.5 102t-151.5 48h-158v-310z" />
<glyph unicode="&#x433;" horiz-adv-x="749" d="M92 0v20q30 0 49 36.5t19 72.5v604q0 34 -19.5 70.5t-48.5 36.5v20h635v-213h-20q0 50 -39.5 98t-100.5 48h-272v-664q0 -35 21 -72t49 -37v-20h-273z" />
<glyph unicode="&#x434;" horiz-adv-x="1032" d="M16 68h78q19 0 38.5 24.5t42.5 64.5q3 6 5 9q31 69 156.5 347.5t171.5 383.5l346 -756q20 -41 33.5 -57t36.5 -16h80v-252h-21q-6 39 -21.5 78t-48.5 72.5t-75 33.5h-652q-41 0 -75.5 -33t-52.5 -74t-21 -77h-21v252zM207 68h532l-266 583z" />
<glyph unicode="&#x435;" d="M76 440q0 63 15.5 124t50 117.5t84.5 99t123 68t161 25.5q133 0 226 -60.5t136 -162t43 -237.5h-710q19 -153 111.5 -256t248.5 -103q62 0 126.5 22.5t117 67.5t68.5 103h18v-154q-17 0 -64 -28q-37 -22 -67.5 -36.5t-93 -29t-133.5 -14.5q-94 0 -175.5 27t-146 80.5 t-102 142.5t-37.5 204zM205 487h583q-3 83 -34.5 153.5t-97 118.5t-154.5 48t-156 -49t-99.5 -119t-41.5 -152z" />
<glyph unicode="&#x436;" horiz-adv-x="1284" d="M29 0v20q43 4 94 47.5t76 94.5l96 198q26 49 85 84t132 39q-27 26 -149.5 142.5t-184.5 173.5q-52 39 -78 41v20h158v-22q-6 -3 -6 -7q0 -9 6 -18l315 -293v211q0 34 -18.5 69.5t-48.5 39.5v20h262v-20q-29 -4 -48.5 -39.5t-19.5 -69.5v-211l318 297q4 4 4 14q0 4 -6 7 v22h158v-20q-16 0 -50 -21l-28 -20l-334 -316q80 -1 135.5 -34t81.5 -89l96 -198q26 -51 76 -94.5t94 -47.5v-20h-71q-81 0 -130 33t-81 94l-99 192q-19 47 -66 81.5t-98 39.5v-305q0 -35 19 -73t49 -42v-20h-262v20q30 4 48.5 41.5t18.5 73.5v305q-52 -4 -95.5 -38 t-67.5 -83l-97 -192q-62 -127 -213 -127h-71z" />
<glyph unicode="&#x437;" horiz-adv-x="780" d="M18 76v166h19q7 -83 87.5 -133t188.5 -50q103 0 179.5 45t76.5 127q0 58 -42.5 103t-103.5 66.5t-126 21.5h-66v65h72q86 0 150.5 50.5t64.5 113.5q0 69 -69 113.5t-158 44.5q-85 0 -145.5 -41t-71.5 -123h-19v160q28 0 64 20q88 47 198 47q158 0 246 -57t88 -156 q0 -51 -44 -107t-115 -87q109 -23 162 -81.5t53 -131.5q0 -122 -109 -191t-262 -69q-80 0 -150.5 21t-113.5 42t-54 21z" />
<glyph unicode="&#x438;" horiz-adv-x="1083" d="M94 0v20q28 0 46 37.5t18 75.5v600q0 35 -18 71t-46 36v20h260v-20q-28 0 -44.5 -36t-16.5 -71v-489l487 477v12q0 35 -17.5 71t-45.5 36v20h262v-20q-32 0 -49 -35.5t-17 -71.5v-600q0 -35 20 -74t46 -39v-20h-262v20q28 0 45.5 37.5t17.5 75.5v492l-487 -478v-14 q0 -36 17 -74.5t44 -38.5v-20h-260z" />
<glyph unicode="&#x439;" horiz-adv-x="1083" d="M94 0v20q28 0 46 37.5t18 75.5v600q0 35 -18 71t-46 36v20h260v-20q-28 0 -44.5 -36t-16.5 -71v-489l487 477v12q0 35 -17.5 71t-45.5 36v20h262v-20q-32 0 -49 -35.5t-17 -71.5v-600q0 -35 20 -74t46 -39v-20h-262v20q28 0 45.5 37.5t17.5 75.5v492l-487 -478v-14 q0 -36 17 -74.5t44 -38.5v-20h-260zM297 1137h12q2 -15 13.5 -34.5t34 -43t66.5 -39.5t101 -16q59 0 103.5 15.5t67.5 40.5t32.5 42t15.5 35h13q0 -74 -67 -143.5t-163 -69.5q-91 0 -160 68t-69 145z" />
<glyph unicode="&#x43a;" horiz-adv-x="923" d="M106 0v20q29 0 47.5 36.5t18.5 72.5v602q0 38 -17 73.5t-49 35.5v20h263v-20q-27 0 -44.5 -36.5t-17.5 -72.5v-211q59 52 174.5 150.5t173.5 150.5q0 1 2 4t2 4q0 11 -10 11v20h178v-20q-15 0 -53 -21q-32 -19 -33 -20q-62 -52 -184 -159t-184 -159q88 0 144.5 -32.5 t94.5 -104.5l101 -184q28 -50 82 -95t100 -45v-20h-78q-154 0 -225 131l-96 182q-24 44 -77.5 75.5t-111.5 31.5v-291q0 -38 16.5 -73.5t47.5 -35.5v-20h-265z" />
<glyph unicode="&#x43b;" horiz-adv-x="1009" d="M31 0v20q29 0 62 29.5t54 71.5l279 651q10 30 10 43q0 25 -33 25v20h166l316 -737q16 -36 43.5 -69.5t50.5 -33.5v-20h-272v20q16 0 33.5 13.5t17.5 34.5q0 12 -15 47l-260 614l-270 -645q-35 -84 -137 -84h-45z" />
<glyph unicode="&#x43c;" horiz-adv-x="1206" d="M94 0v20q29 0 46.5 38t17.5 75v600q0 22 -2 38t-8 33.5t-19.5 26.5t-34.5 9v20h182l314 -641l313 641h195v-20q-28 0 -48 -36t-20 -71v-600q0 -36 19.5 -74.5t48.5 -38.5v-20h-267v20q29 0 47.5 37.5t18.5 75.5v553l-342 -704l-328 663v-512q0 -37 18.5 -75t47.5 -38v-20 h-199z" />
<glyph unicode="&#x43d;" horiz-adv-x="1062" d="M96 0v20q27 0 44.5 38t17.5 75v600q0 34 -17.5 70.5t-44.5 36.5v20h258v-20q-28 0 -44.5 -36t-16.5 -71v-248h467v248q0 35 -17 71t-45 36v20h258v-20q-29 0 -45 -35.5t-16 -71.5v-600q0 -36 17 -74.5t44 -38.5v-20h-258v20q27 0 44.5 38t17.5 75v285h-467v-285 q0 -36 17 -74.5t44 -38.5v-20h-258z" />
<glyph unicode="&#x43e;" horiz-adv-x="1071" d="M76 424q0 199 130 324.5t329 125.5q196 0 321 -120.5t125 -309.5q0 -90 -30.5 -171.5t-86.5 -146t-144.5 -102.5t-197.5 -38q-200 0 -323 124t-123 314zM209 446q0 -102 40.5 -191.5t118 -145.5t175.5 -56q74 0 134.5 32.5t97.5 86t57 117.5t20 131q0 70 -21.5 137 t-62 123.5t-108 91.5t-150.5 35q-140 -7 -220.5 -113.5t-80.5 -247.5z" />
<glyph unicode="&#x43f;" horiz-adv-x="1046" d="M94 0v20q29 0 46.5 37.5t17.5 75.5v600q0 36 -18 71.5t-46 35.5v20h850v-20q-29 0 -47 -35.5t-18 -71.5v-600q0 -37 18 -75t47 -38v-20h-264v20q32 0 47.5 36.5t15.5 76.5v655h-450v-655q0 -37 16.5 -75t44.5 -38v-20h-260z" />
<glyph unicode="&#x440;" horiz-adv-x="1054" d="M94 -430q28 0 47 38.5t19 74.5v1056q0 24 -1 36.5t-7 29t-20 25t-38 10.5v20h201v-90q87 104 233 104q106 0 191 -37.5t137 -100.5t79.5 -140.5t27.5 -163.5q0 -67 -16 -130.5t-50 -121t-82.5 -100.5t-118 -68.5t-151.5 -25.5q-61 0 -127.5 32.5t-122.5 85.5v-421 q0 -36 18.5 -74.5t46.5 -38.5v-21h-266v21zM295 307q0 -106 78.5 -179t173.5 -73q92 3 157.5 55.5t94 128t28.5 164.5q0 100 -35 190.5t-106 151t-162 60.5t-160 -65.5t-69 -164.5v-268z" />
<glyph unicode="&#x441;" horiz-adv-x="892" d="M74 430q0 118 54 218t162.5 163t250.5 63q107 0 202 -51q39 -22 72 -22v-156h-20q-19 74 -94.5 117t-159.5 43q-81 0 -146.5 -29.5t-105.5 -78.5t-61 -109.5t-21 -126.5q0 -104 40 -195t120.5 -151t185.5 -60q110 0 188 57t86 121h21v-159q-19 0 -64 -25 q-110 -63 -235 -63q-208 0 -341.5 126.5t-133.5 317.5z" />
<glyph unicode="&#x442;" horiz-adv-x="827" d="M14 645v215h789v-215h-19q0 53 -35 100.5t-96 47.5h-180v-660q0 -35 19 -74t47 -39v-20h-267v20q29 0 48.5 38.5t19.5 74.5v660h-176q-61 0 -95 -47.5t-34 -100.5h-21z" />
<glyph unicode="&#x443;" horiz-adv-x="970" d="M39 840v20h264v-20q-9 0 -21 -15.5t-12 -36.5q0 -17 9 -32l251 -580l242 592q6 15 6 27q0 19 -13 32t-28 13v20h199v-20q-30 0 -54.5 -25.5t-39.5 -64.5l-422 -1043q-50 -147 -164 -147q-36 0 -69.5 16t-51 32.5t-14.5 16.5l67 166q9 -34 21 -55q27 -53 74 -53 q50 0 77 71l99 252l-328 746q-1 3 -8 17l-8.5 17t-8 14t-10 14t-10.5 10t-13 9t-15 4.5t-19 2.5z" />
<glyph unicode="&#x444;" horiz-adv-x="1427" d="M59 444q0 85 21 159.5t63.5 136.5t116 98t170.5 36q140 0 217 -77v243q0 34 -18 69.5t-47 35.5v20h262v-20q-27 0 -46.5 -36t-19.5 -69v-241q23 20 42 33t67.5 27.5t107.5 14.5q97 0 171 -36.5t116.5 -99.5t63 -139t20.5 -163q0 -85 -24 -163.5t-70.5 -143.5t-123 -104 t-173.5 -39q-55 0 -135 37q-30 13 -62 38v-378q0 -36 19 -74.5t47 -38.5v-21h-262v21q29 0 47 37.5t18 75.5v378q-75 -75 -194 -75q-97 0 -174 39.5t-124 105t-71.5 146t-24.5 167.5zM186 471q0 -104 32 -197.5t97.5 -156t151.5 -62.5q74 0 127 63t53 130v346 q0 87 -61.5 149t-139.5 62q-68 0 -119.5 -27.5t-81.5 -75.5t-44.5 -106t-14.5 -125zM778 250q0 -67 58.5 -131t130.5 -64q90 0 153.5 50t92 125t28.5 165q0 105 -28 195.5t-90 151.5t-148 61t-141.5 -58t-55.5 -149v-346z" />
<glyph unicode="&#x445;" horiz-adv-x="954" d="M23 0v20q28 0 59.5 23t56.5 57l248 336l-229 312q-75 92 -117 92v20h295v-20q-15 0 -27 -9t-12 -30q0 -14 12 -29l166 -229l158 209q24 28 24 55q0 13 -7.5 23t-20.5 10v20h196v-20q-46 0 -112 -95l-199 -262l274 -370q66 -93 123 -93v-20h-293v20q17 0 28 8.5t11 20.5 q0 15 -24 45q-41 53 -111.5 152.5t-93.5 130.5l-213 -289q-22 -27 -22 -47q0 -21 22 -21v-20h-192z" />
<glyph unicode="&#x446;" horiz-adv-x="1050" d="M94 0v20q26 0 44 37.5t18 69.5v600q0 24 -5 48t-19.5 44.5t-37.5 20.5v20h260v-20q-32 0 -47.5 -36.5t-15.5 -76.5v-659h446v659q0 39 -15.5 76t-47.5 37v20h260v-20q-32 0 -47 -36t-15 -77v-547q0 -112 84 -112h66v-248h-21q0 57 -50.5 118.5t-112.5 61.5h-744z" />
<glyph unicode="&#x447;" horiz-adv-x="950" d="M63 840v20h240v-20q-24 0 -40.5 -36.5t-16.5 -70.5v-82q0 -66 20 -117t52 -79t67.5 -42t71.5 -14q53 0 97 25t89 80v229q0 35 -17 71t-44 36v20h260v-20q-26 0 -45 -37t-19 -70v-604q0 -35 19 -72t45 -37v-20h-260v20q27 0 44 36.5t17 72.5v283q-50 -52 -102 -76.5 t-127 -24.5q-95 0 -166 50t-104 125.5t-33 164.5v82q0 34 -14 70.5t-34 36.5z" />
<glyph unicode="&#x448;" horiz-adv-x="1447" d="M92 0v20q25 0 42.5 36.5t17.5 70.5v600q0 39 -15.5 76t-44.5 37v20h254v-20q-30 0 -45.5 -37t-15.5 -76v-659h370v659q0 37 -16.5 75t-44.5 38v20h254v-20q-28 0 -45 -36t-17 -67v-669h373v659q0 40 -15 76.5t-48 36.5v20h258v-20q-29 0 -45.5 -37.5t-16.5 -75.5v-600 q0 -35 16.5 -71t43.5 -36v-20h-1260z" />
<glyph unicode="&#x449;" horiz-adv-x="1490" d="M92 840v20h254v-20q-30 0 -45.5 -37t-15.5 -76v-659h370v659q0 38 -15.5 75.5t-43.5 37.5v20h254v-20q-29 0 -46.5 -35.5t-17.5 -67.5v-669h373v659q0 40 -15 76.5t-48 36.5v20h258v-20q-22 0 -36.5 -20.5t-20 -44.5t-5.5 -48v-547q0 -16 2 -32.5t7.5 -36t17.5 -31.5 t29 -12h100v-252h-21q-9 59 -57 121.5t-108 62.5h-1162v20q26 0 40 37t14 70v600q0 39 -16 76t-46 37z" />
<glyph unicode="&#x44a;" horiz-adv-x="944" d="M18 676v184h394v-20q-27 0 -46.5 -36t-19.5 -71v-246h158q182 0 274 -67.5t92 -175.5q0 -111 -93.5 -177.5t-282.5 -66.5h-349v20q28 0 47 38t19 75v662h-41q-64 0 -97.5 -34t-33.5 -85h-21zM346 68h143q129 0 189.5 41.5t60.5 111.5q0 82 -76.5 140.5t-205.5 58.5h-111 v-352z" />
<glyph unicode="&#x44b;" horiz-adv-x="1316" d="M96 0v20q28 0 47 38t19 75v600q0 34 -19 70.5t-47 36.5v20h266v-20q-28 0 -47.5 -36t-19.5 -71v-246h162q182 0 276 -66.5t94 -174.5t-98 -177t-285 -69h-348zM295 68h145q129 0 192.5 41.5t63.5 111.5q0 80 -70 139.5t-192 59.5h-139v-352zM940 0v20q28 0 47 38t19 75 v600q0 34 -19 70.5t-47 36.5v20h266v-20q-28 0 -47.5 -36t-19.5 -71v-600q0 -37 19 -75t48 -38v-20h-266z" />
<glyph unicode="&#x44c;" horiz-adv-x="911" d="M92 0v20q30 0 49 38t19 75v600q0 34 -19.5 70.5t-48.5 36.5v20h268v-20q-28 0 -47.5 -36t-19.5 -71v-246h160q183 0 277.5 -66.5t94.5 -174.5q0 -109 -97.5 -177.5t-285.5 -68.5h-350zM293 68h145q129 0 192.5 41.5t63.5 111.5q0 80 -70 139.5t-192 59.5h-139v-352z" />
<glyph unicode="&#x44d;" horiz-adv-x="856" d="M18 53v150h17q64 -148 241 -148q86 0 155.5 32t112.5 85t67 116t26 130h-277q-47 0 -76 -19.5t-34 -52.5h-21v205h21q3 -66 110 -66h275q-17 136 -114 228t-226 92q-185 0 -248 -168h-16v156q21 0 61 22q101 59 234 59q122 0 224 -54t162 -152t60 -219 q0 -197 -132.5 -330t-334.5 -133q-127 0 -215 47q-36 20 -72 20z" />
<glyph unicode="&#x44e;" horiz-adv-x="1409" d="M96 0v20q27 4 44.5 40.5t17.5 72.5v600q0 32 -16.5 67.5t-43.5 39.5v20h252v-20q-28 -4 -42.5 -39t-14.5 -68v-248h143q13 79 46 147.5t87 123.5t134 86.5t178 31.5q200 0 317 -123t117 -315q0 -200 -126 -325t-323 -125q-186 0 -307.5 128t-126.5 304h-139v-285 q0 -37 15.5 -73t41.5 -40v-20h-254zM567 446q0 -70 20 -137t58.5 -124.5t104 -92.5t147.5 -35q72 2 128 33.5t89.5 83t50.5 112.5t17 128q0 159 -89.5 275t-234.5 116q-72 0 -129.5 -31.5t-92 -83.5t-52 -114.5t-17.5 -129.5z" />
<glyph unicode="&#x44f;" horiz-adv-x="915" d="M23 0v20q78 0 184 146l63 88q4 6 17 23.5t18.5 24.5t17.5 22.5t19 23.5t19 20.5t21 20t20.5 16.5t23.5 15q-144 4 -224.5 67.5t-80.5 157.5t87 154.5t265 60.5h338v-20q-28 0 -47 -36.5t-19 -70.5v-600q0 -37 19 -75t47 -38v-20h-266v20q28 0 46.5 38.5t18.5 74.5v287 q-42 -7 -104.5 -68t-118.5 -139q-12 -18 -32 -44t-27 -38q-26 -34 -42.5 -52t-44.5 -39.5t-62.5 -30.5t-80.5 -9h-75zM254 657q0 -63 73.5 -117.5t168.5 -54.5h114v310h-133q-223 0 -223 -138z" />
<glyph unicode="&#x450;" d="M76 440q0 63 15.5 124t50 117.5t84.5 99t123 68t161 25.5q133 0 226 -60.5t136 -162t43 -237.5h-710q19 -153 111.5 -256t248.5 -103q62 0 126.5 22.5t117 67.5t68.5 103h18v-154q-17 0 -64 -28q-37 -22 -67.5 -36.5t-93 -29t-133.5 -14.5q-94 0 -175.5 27t-146 80.5 t-102 142.5t-37.5 204zM205 487h583q-3 83 -34.5 153.5t-97 118.5t-154.5 48t-156 -49t-99.5 -119t-41.5 -152zM324 1069l53 92l291 -219l-4 -12z" />
<glyph unicode="&#x451;" d="M80 440q0 62 15.5 122.5t50 116.5t83.5 98t121.5 67.5t159.5 25.5q190 0 293 -126t108 -326h-710q13 -161 106.5 -264t257.5 -103q99 0 193.5 53.5t122.5 139.5h12v-146q-20 -2 -66 -28q-133 -80 -290 -80q-92 0 -173 27t-145 80.5t-101.5 141.5t-37.5 201zM201 483h592 q-2 50 -14 96.5t-35.5 89t-57 74t-81 50t-103.5 18.5q-70 0 -127.5 -28.5t-93 -76t-56 -104.5t-24.5 -119zM305 995q0 29 18.5 47.5t47.5 18.5t47 -18.5t18 -47.5t-18 -47t-47 -18t-47.5 18t-18.5 47zM541 995q0 29 19 47.5t48 18.5q27 0 45.5 -18.5t18.5 -47.5t-18.5 -47 t-45.5 -18q-29 0 -48 18t-19 47z" />
<glyph unicode="&#x452;" horiz-adv-x="972" d="M14 1051v69h107v60q0 22 -1.5 35.5t-7.5 29.5t-20.5 24t-38.5 9l-2 20l205 64v-242h227v-69h-227v-277q39 44 103.5 75.5t152.5 31.5q84 0 151.5 -29.5t107.5 -73t67 -98t37 -101t10 -85.5v-320q0 -238 -174 -444q-79 -92 -172 -158l-15 14q55 58 113 152 q115 194 115 407v359q0 141 -73 222t-181 81q-95 0 -168.5 -69.5t-73.5 -172.5v-432q0 -36 17 -74.5t44 -38.5v-20h-258v20q27 0 44.5 38.5t17.5 74.5v918h-107z" />
<glyph unicode="&#x453;" horiz-adv-x="749" d="M92 0v20q30 0 49 36.5t19 72.5v604q0 34 -19.5 70.5t-48.5 36.5v20h635v-213h-20q0 50 -39.5 98t-100.5 48h-272v-664q0 -35 21 -72t49 -37v-20h-273zM213 918l291 219l53 -93l-338 -139z" />
<glyph unicode="&#x454;" horiz-adv-x="876" d="M82 432q0 88 32 168t90.5 142t148 98.5t196.5 36.5q106 0 203 -52q39 -22 71 -22v-156h-20q-19 74 -94.5 117t-159.5 43q-102 0 -178 -47t-113.5 -118t-42.5 -155h283q107 0 110 66h21v-205h-21q-5 33 -34 52.5t-76 19.5h-281q13 -145 110 -254t242 -109h17 q99 0 170.5 57t79.5 122h20v-160q-7 0 -12.5 -1t-13 -4t-10.5 -4.5t-14 -8t-13 -7.5q-32 -18 -55.5 -29t-71.5 -22.5t-101 -11.5q-210 0 -346.5 127t-136.5 317z" />
<glyph unicode="&#x455;" horiz-adv-x="841" d="M74 639q0 103 81 169t251 66q109 0 196 -40q37 -21 78 -21v-143h-16q-35 65 -110 101t-159 36q-95 0 -144.5 -42.5t-49.5 -96.5q0 -32 18.5 -57.5t55.5 -46t73 -34.5t90 -30q40 -13 67 -22t63.5 -24.5t61 -29.5t50.5 -35t42 -43t26 -51t10 -62q0 -104 -99.5 -176.5 t-240.5 -72.5q-128 0 -238 71q-59 39 -98 39v156h20q13 -61 109.5 -127t191.5 -66q52 0 100.5 14.5t85 49.5t36.5 84q0 30 -15.5 56t-36 43t-59.5 35t-65.5 27.5t-73.5 24.5q-44 14 -73 24.5t-68 27t-64 34.5t-49 42t-35.5 54t-11.5 66z" />
<glyph unicode="&#x456;" horiz-adv-x="514" d="M117 801v18l205 66v-752q0 -37 18 -75t47 -38v-20h-266v20q29 0 47 38t18 75v567q0 22 -1.5 36t-8 30.5t-21 25t-38.5 9.5zM145 1081q0 41 28 70t69 29t69.5 -29t28.5 -70t-28 -67.5t-70 -26.5t-69.5 26.5t-27.5 67.5z" />
<glyph unicode="&#x457;" horiz-adv-x="438" d="M45 1018q0 29 18 46t48 17q29 0 47 -17t18 -46t-18 -47.5t-47 -18.5t-47.5 18.5t-18.5 47.5zM121 801v10l196 66v-748q0 -37 18.5 -77t47.5 -40v-12h-258v12q27 0 46 40.5t19 76.5v567q0 29 -3.5 48t-20 36.5t-45.5 20.5zM283 1018q0 29 18 46t47 17q27 0 45.5 -17.5 t18.5 -45.5q0 -29 -18.5 -47.5t-45.5 -18.5q-29 0 -47 18.5t-18 47.5z" />
<glyph unicode="&#x458;" horiz-adv-x="428" d="M-47 -408q61 40 110 101q113 140 113 319v686q0 30 -3 48t-19.5 35t-47.5 18v18l203 66v-840q0 -206 -174 -360q-76 -67 -174 -109zM129 1081q0 41 28.5 70t69.5 29t69 -29t28 -70t-27.5 -67.5t-69.5 -26.5t-70 26.5t-28 67.5z" />
<glyph unicode="&#x459;" horiz-adv-x="1302" d="M14 0v20q70 0 138 111l419 686q2 2 2 8q0 15 -22 15v20h248v-20q-27 0 -46.5 -36t-19.5 -71v-246h96q183 0 281 -67t98 -174q0 -108 -101 -177t-290 -69h-282v20q28 0 45.5 37t17.5 76v600l-397 -643q-57 -90 -123 -90h-64zM733 70h80q131 0 193.5 40.5t62.5 110.5 q0 80 -69.5 139.5t-192.5 59.5h-74v-350z" />
<glyph unicode="&#x45a;" horiz-adv-x="1392" d="M96 0v20q28 0 46 37.5t18 75.5v600q0 35 -18 71t-46 36v20h260v-20q-29 0 -45 -35.5t-16 -71.5v-246h405v246q0 35 -18 71t-47 36v20h262v-20q-29 0 -45 -35.5t-16 -71.5v-246h86q182 0 279 -67t97 -174q0 -108 -101 -177t-288 -69h-274v20q28 0 46.5 38t18.5 75v281 h-405v-281q0 -36 17 -74.5t44 -38.5v-20h-260zM836 70h69q129 0 191.5 40.5t62.5 110.5q0 80 -69 139.5t-191 59.5h-63v-350z" />
<glyph unicode="&#x45b;" horiz-adv-x="1101" d="M47 1051v69h113v39q0 23 -1.5 36t-7.5 29.5t-20.5 24.5t-38.5 8l-2 21l205 63v-221h221v-69h-221v-289q27 27 42 39.5t48.5 33.5t77 30t100.5 9q84 0 154.5 -31.5t115.5 -82.5t70 -114.5t25 -129.5v-383q0 -36 17 -74.5t44 -38.5v-20h-256v20q27 0 44.5 38.5t17.5 74.5 v393q0 140 -71.5 208.5t-182.5 68.5q-103 0 -174.5 -75t-71.5 -175v-420q0 -37 16.5 -75t44.5 -38v-20h-258v20q28 0 45 38t17 75v918h-113z" />
<glyph unicode="&#x45c;" horiz-adv-x="919" d="M90 0v20q28 0 46 36.5t18 72.5v602q0 36 -18 72.5t-46 36.5v20h266v-20q-29 0 -48 -37t-19 -72v-242l332 312q20 20 20 28q0 11 -16 11v20h176v-20q-17 0 -51 -21l-29 -20l-291 -271l303 -383q26 -36 53 -63q62 -62 93 -62v-20h-111q-60 0 -121 49q-33 25 -51 49 l-260 342l-47 -45v-266q0 -36 18 -72.5t49 -36.5v-20h-266zM205 1137h12q2 -15 13.5 -34.5t34.5 -43t67.5 -39.5t101.5 -16q59 0 102.5 15.5t66.5 40.5t32.5 42t15.5 35h13q0 -74 -66 -143.5t-162 -69.5q-93 0 -162 68t-69 145z" />
<glyph unicode="&#x45d;" horiz-adv-x="1083" d="M94 0v20q28 0 46 37.5t18 75.5v600q0 35 -18 71t-46 36v20h260v-20q-28 0 -44.5 -36t-16.5 -71v-489l487 477v12q0 35 -17.5 71t-45.5 36v20h262v-20q-32 0 -49 -35.5t-17 -71.5v-600q0 -35 20 -74t46 -39v-20h-262v20q28 0 45.5 37.5t17.5 75.5v492l-487 -478v-14 q0 -36 17 -74.5t44 -38.5v-20h-260zM369 1044l53 93l291 -219l-4 -13z" />
<glyph unicode="&#x45e;" horiz-adv-x="970" d="M35 840v20h272v-20q-12 0 -24.5 -15t-12.5 -37q0 -17 9 -32l251 -580l242 592q6 15 6 27q0 19 -13 32t-28 13v20h199v-20q-30 0 -54.5 -25.5t-39.5 -64.5l-422 -1043q-50 -147 -164 -147q-36 0 -69.5 16t-51 32.5t-14.5 16.5l67 166q9 -34 21 -55q27 -53 74 -53 q50 0 77 71l99 252l-328 746q-30 88 -96 88zM281 1137h12q2 -15 13.5 -34.5t34 -43t66.5 -39.5t101 -16q59 0 103.5 15.5t67.5 40.5t32.5 42t15.5 35h12q0 -74 -66.5 -143.5t-162.5 -69.5q-91 0 -160 68t-69 145z" />
<glyph unicode="&#x45f;" horiz-adv-x="1054" d="M94 0v20q27 0 44.5 36.5t17.5 70.5v600q0 36 -17.5 74.5t-44.5 38.5v20h260v-20q-21 0 -36 -20t-21 -44.5t-6 -48.5v-659h459v659q0 38 -16.5 75.5t-45.5 37.5v20h260v-20q-29 0 -46 -37t-17 -76v-600q0 -35 17.5 -71t45.5 -36v-20h-284q-60 0 -97 -61.5t-37 -122.5h-20 q0 61 -35.5 122.5t-95.5 61.5h-285z" />
<glyph unicode="&#x462;" horiz-adv-x="1267" d="M41 1128v224h920v-224h-21q0 54 -35 101t-96 47h-242v-498h115q80 0 150.5 -12t136.5 -41t113 -72.5t75.5 -111.5t28.5 -154q0 -176 -134.5 -281.5t-340.5 -105.5h-357v20h11q27 0 46 36.5t19 70.5v1149h-237q-61 0 -96.5 -47t-35.5 -101h-20zM567 72h31q444 0 444 307 q0 152 -104.5 241t-302.5 89h-68v-637z" />
<glyph unicode="&#x463;" horiz-adv-x="907" d="M72 1040v70h106v59q0 23 -1.5 36t-7 29.5t-20 24.5t-38.5 9l-2 20l202 64v-242h230v-70h-230v-553h160q183 0 278 -66.5t95 -174.5q0 -109 -97.5 -177.5t-285.5 -68.5h-350v20q30 0 48.5 37.5t18.5 75.5v907h-106zM311 68h146q129 0 192.5 41.5t63.5 111.5 q0 80 -70 139.5t-192 59.5h-140v-352z" />
<glyph unicode="&#x472;" horiz-adv-x="1558" d="M76 662q0 106 30 209t90 193.5t143 159t197.5 108.5t245.5 40q124 0 234 -36.5t192 -101t141.5 -151t90 -190t30.5 -213.5q0 -200 -97 -361.5t-260.5 -250t-358.5 -88.5q-153 0 -282.5 57t-215 152t-133 218t-47.5 255zM213 690q0 -58 8 -102q105 225 305 225 q54 0 110 -16.5t89 -32.5t92 -49q2 -1 25.5 -14t27.5 -14.5t24.5 -12.5t27 -13t24.5 -10t28 -10t25.5 -6t29.5 -5t28 -1q83 0 153.5 35.5t104.5 119.5q-19 98 -67 189.5t-118 165t-168 117.5t-206 44q-98 0 -186 -36.5t-152 -98t-111 -140t-70.5 -165t-23.5 -170.5zM229 549 q25 -94 76.5 -182.5t121.5 -159.5t162.5 -113.5t190.5 -42.5q106 5 197.5 43t155.5 98t109.5 137.5t67 160t21.5 165.5q0 43 -6 86q-42 -111 -118 -170t-181 -59q-54 0 -111 17t-89.5 33t-92.5 50q-52 29 -78 42.5t-69.5 27.5t-81.5 14q-52 0 -102 -12t-100 -46.5t-73 -88.5 z" />
<glyph unicode="&#x473;" horiz-adv-x="1071" d="M76 424q0 199 130 324.5t329 125.5q196 0 321 -120.5t125 -309.5q0 -90 -30.5 -171.5t-86.5 -146t-144.5 -102.5t-197.5 -38q-200 0 -323 124t-123 314zM209 446q0 -52 6 -77q70 161 188 161q44 0 156.5 -51t155.5 -51q69 0 127 88q-27 121 -114 206t-218 85 q-140 -7 -220.5 -113.5t-80.5 -247.5zM221 336q31 -121 117.5 -202t204.5 -81q74 0 134.5 32.5t97.5 86t57 117.5t20 131q0 48 -4 63q-33 -94 -63.5 -124.5t-88.5 -30.5q-46 0 -170.5 51t-169.5 51q-32 0 -69 -29t-66 -65z" />
<glyph unicode="&#x490;" horiz-adv-x="909" d="M90 0v20h10q30 0 49 36.5t19 72.5v1096q0 34 -19.5 70t-48.5 36h-10v21h637q62 0 96.5 43.5t34.5 97.5h21v-213h-572v-1151q0 -35 17.5 -72t44.5 -37h16v-20h-295z" />
<glyph unicode="&#x491;" horiz-adv-x="749" d="M90 0v20q30 0 49 36.5t19 72.5v604q0 34 -19.5 70.5t-48.5 36.5v20h485q63 0 96.5 34t33.5 85h20v-186h-432v-664q0 -35 20.5 -72t48.5 -37v-20h-272z" />
<glyph unicode="&#x492;" horiz-adv-x="942" d="M59 692v70h111v463q0 34 -19.5 70t-48.5 36h-8v21h787v-207h-21q0 53 -34 94t-97 41h-420v-518h279v-70h-279v-563q0 -36 19 -72.5t49 -36.5h8v-20h-291v20h8q30 0 49 36.5t19 72.5v563h-111z" />
<glyph unicode="&#x493;" horiz-adv-x="749" d="M47 416v69h113v248q0 34 -19.5 70.5t-48.5 36.5v20h635v-186h-20q0 51 -33 85t-96 34h-283v-308h213v-69h-213v-287q0 -35 21 -72t49 -37v-20h-273v20q30 0 49 36.5t19 72.5v287h-113z" />
<glyph unicode="&#x494;" horiz-adv-x="976" d="M92 0v20h10q30 0 49 36.5t19 72.5v1096q0 34 -19.5 70t-48.5 36h-10v21h789v-219h-21q0 54 -34.5 100.5t-96.5 46.5h-420v-504q92 109 238 109q79 0 141.5 -22.5t102.5 -59t66 -86.5t37 -102t11 -109v-184q0 -215 -176 -371q-64 -59 -174 -113l-10 19q56 39 110 108 q113 152 113 332v281q0 98 -66 165.5t-167 67.5q-93 0 -159.5 -66.5t-66.5 -156.5v-459q0 -36 19 -72.5t49 -36.5h10v-20h-295z" />
<glyph unicode="&#x495;" horiz-adv-x="905" d="M92 0v20q30 0 49 36.5t19 72.5v604q0 34 -19.5 70.5t-48.5 36.5v20h635v-213h-20q0 50 -39.5 98t-100.5 48h-272v-273q23 25 36 37t40.5 30.5t62.5 27t80 8.5q309 0 309 -387v-60q0 -238 -174 -444q-82 -95 -172 -158l-14 14q52 55 112 152q115 194 115 407v99 q0 153 -44.5 228t-145.5 75q-83 0 -144 -64.5t-61 -144.5v-211q0 -35 21 -72t49 -37v-20h-273z" />
<glyph unicode="&#x496;" horiz-adv-x="1755" d="M53 0v20q41 0 103 62q34 34 55 63l407 680l-387 432q-66 74 -106 74v21h199v-21q-25 -6 -25 -28q0 -16 20 -39l461 -514v475q0 35 -17.5 70.5t-45.5 35.5h-10v21h288v-21h-10q-27 0 -46 -36t-19 -70v-475l460 514q21 24 21 41q0 20 -27 26v21h199v-21q-33 0 -98 -69 l-396 -437l377 -635q20 -33 45 -61q61 -61 113 -61h92v-242h-20q0 25 -8.5 53.5t-24.5 56t-46 46t-67 18.5q-112 0 -192 133l-357 590l-73 -74v-516q0 -36 19.5 -74.5t47.5 -38.5h10v-20h-288v20h10q28 0 45.5 37.5t17.5 75.5v512l-71 82l-357 -594q-28 -49 -58.5 -76.5 t-78.5 -42t-121 -14.5h-41z" />
<glyph unicode="&#x497;" horiz-adv-x="1447" d="M113 0v20q23 0 77 62q43 56 48 63l276 383l-264 271q-6 0 -6 4q-12 13 -32 25t-32 12v20h156v-20q-10 0 -10 -11q0 -14 18 -32l295 -305v243q0 34 -19 70.5t-47 36.5v20h271v-20q-28 0 -48 -36t-20 -71v-243l295 305q21 21 21 32t-13 11v20h156v-20q-14 0 -43 -21 l-27 -20l-149 -156l-113 -115q176 -252 209 -297q18 -25 31 -38l49 -64q53 -61 76 -61h108v-240h-20q0 52 -44 112t-106 60q-47 0 -108 49q-28 24 -47 49q-6 8 -98.5 139.5t-137.5 198.5l-39 -39v-264q0 -36 19.5 -74.5t48.5 -38.5v-20h-271v20q28 0 47 38t19 75v266l-37 37 q-210 -302 -237 -338q-1 -1 -11.5 -14.5t-23 -25.5t-30.5 -26.5t-42 -23t-49 -8.5h-96z" />
<glyph unicode="&#x498;" horiz-adv-x="952" d="M23 47v227h20q35 -110 118.5 -165.5t188.5 -55.5q87 0 165 36t128.5 107t50.5 160q0 144 -102.5 247.5t-255.5 103.5h-74v69h84q128 0 216.5 70t88.5 188q0 117 -85.5 190.5t-196.5 73.5q-91 0 -166.5 -54t-106.5 -157h-20v228h18q24 0 80 18q124 39 221 39 q185 0 294.5 -95.5t109.5 -234.5q0 -190 -207 -297q135 -60 201.5 -153.5t66.5 -208.5q0 -135 -97 -245t-259 -146q-20 -189 -189 -334q-72 -63 -161 -107l-9 17q63 42 111 98q111 137 113 314q-138 0 -238 45q-52 22 -90 22h-18z" />
<glyph unicode="&#x499;" horiz-adv-x="780" d="M18 76v157h19q4 -81 85.5 -127.5t190.5 -46.5q103 0 179.5 45t76.5 127q0 58 -42.5 103t-103.5 66.5t-126 21.5h-66v65h72q86 0 150.5 50.5t64.5 113.5q0 69 -69 113.5t-158 44.5q-85 0 -145.5 -41t-71.5 -123h-19v160q28 0 64 20q88 47 198 47q158 0 246 -57t88 -156 q0 -51 -44 -107t-115 -87q109 -23 162 -81.5t53 -131.5q0 -94 -73.5 -158.5t-187.5 -91.5q-20 -191 -184 -332q-66 -58 -162 -102l-8 16q61 42 109 99q106 128 114 309q-120 7 -231 61q-44 23 -66 23z" />
<glyph unicode="&#x49a;" horiz-adv-x="1265" d="M88 0v20h12q29 0 48.5 38.5t19.5 74.5v1092q0 34 -19 70t-47 36h-12v21h293v-21h-14q-28 0 -46 -35.5t-18 -70.5v-475l520 516q23 23 23 43q0 22 -29 22v21h223v-21q-49 0 -120 -71l-430 -429l419 -638q12 -24 60 -74.5t86 -50.5h137v-248h-20q0 56 -45 118t-117 62h-11 q-72 0 -118.5 29.5t-94.5 103.5l-397 600l-86 -88v-512q0 -37 18 -75t46 -38h12v-20h-293z" />
<glyph unicode="&#x49b;" horiz-adv-x="987" d="M90 0v20q28 0 46 36.5t18 72.5v602q0 36 -18 72.5t-46 36.5v20h266v-20q-32 -5 -49.5 -39.5t-17.5 -69.5v-242l332 312q20 20 20 28q0 11 -16 11v20h176v-20q-17 0 -51 -21l-29 -20q-48 -44 -145.5 -135.5t-145.5 -135.5l154 -196l112 -139q26 -36 54 -64q61 -61 90 -61 h125v-248h-21q0 33 -17.5 73.5t-56 73.5t-86.5 33h-16q-60 0 -121 49q-33 25 -51 49l-264 340l-43 -43v-266q0 -35 17.5 -69.5t49.5 -39.5v-20h-266z" />
<glyph unicode="&#x49c;" horiz-adv-x="1157" d="M88 0v20h12q29 0 48.5 38.5t19.5 74.5v1092q0 34 -19 70t-47 36h-12v21h293v-21h-14q-28 0 -46 -35.5t-18 -70.5v-475l57 57v242h70v-175l393 392q23 23 23 43q0 22 -29 22v21h223v-21q-49 0 -120 -71l-373 -371l395 -746q13 -24 31.5 -48.5t57.5 -49.5t83 -25v-20h-49 q-120 0 -179.5 29t-99.5 106l-337 658l-19 -19v-254h-70v182l-57 -57v-512q0 -36 20 -74.5t48 -38.5h10v-20h-295z" />
<glyph unicode="&#x49d;" horiz-adv-x="919" d="M90 0v20q28 0 46 36.5t18 72.5v602q0 36 -18 72.5t-46 36.5v20h266v-20q-32 -5 -49.5 -39.5t-17.5 -69.5v-242l57 54v174h64v-117l211 201q20 20 20 28q0 11 -16 11v20h176v-20q-17 0 -51 -21l-29 -20q-178 -166 -199 -185l205 -471q11 -25 39 -61q50 -62 113 -62v-20 h-111q-84 0 -133 49q-22 22 -35 51l-174 426l-16 -16v-242h-64v183l-57 -56v-266q0 -35 17.5 -69.5t49.5 -39.5v-20h-266z" />
<glyph unicode="&#x49e;" horiz-adv-x="1157" d="M14 1051v69h154v105q0 34 -19 70t-47 36v21h273v-21q-28 0 -49 -36.5t-21 -69.5v-105h178v-69h-178v-301l520 516q23 23 23 43q0 22 -29 22v21h223v-21q-49 0 -120 -71l-430 -429l452 -686q13 -25 66.5 -75t105.5 -50v-20h-49q-81 0 -132 14t-82 41t-65 78l-397 600 l-86 -88v-512q0 -34 20 -73.5t48 -39.5v-20h-273v20q29 0 48.5 38.5t19.5 74.5v918h-154z" />
<glyph unicode="&#x49f;" horiz-adv-x="919" d="M59 633v69h95v31q0 36 -18 72.5t-46 36.5v20h266v-20q-29 0 -48 -37t-19 -72v-31h80v-69h-80v-144l332 314q20 20 20 28q0 11 -16 11v20h176v-20q-17 0 -51 -21l-29 -20q-48 -44 -145.5 -136.5t-145.5 -136.5l303 -383q26 -36 53 -63q62 -62 93 -62v-20h-111 q-60 0 -121 49q-33 25 -51 49q-37 51 -80.5 107t-99.5 127t-84 106l-43 -43v-266q0 -35 19 -72t48 -37v-20h-266v20q28 0 46 36.5t18 72.5v504h-95z" />
<glyph unicode="&#x4a0;" horiz-adv-x="1204" d="M23 1155v197h415v-21h-10q-29 0 -47.5 -35.5t-18.5 -70.5v-475l521 516q22 22 22 43q0 22 -28 22v21h223v-21q-50 0 -121 -71l-430 -429l452 -686l9 -11q9 -11 20 -24t28.5 -29.5t35 -29.5t39 -22t41.5 -9v-20h-50q-81 0 -132 14t-81.5 40.5t-64.5 78.5l-397 600l-87 -88 v-512q0 -34 20 -73.5t48 -39.5h8v-20h-288v20h8q29 0 48 38t19 75v1153h-51q-63 0 -97 -39.5t-34 -91.5h-20z" />
<glyph unicode="&#x4a1;" horiz-adv-x="985" d="M20 676v184h402v-20q-32 -5 -50 -39.5t-18 -69.5v-242l332 312q21 21 21 28q0 11 -17 11v20h176v-20q-17 0 -51 -21l-29 -20l-292 -271l186 -235l119 -148q26 -36 53 -63q62 -62 90 -62v-20h-108q-60 0 -121 49q-33 25 -51 49q-31 41 -124 158t-141 182l-43 -43v-266 q0 -35 18 -69.5t50 -39.5v-20h-266v20q28 0 45.5 36.5t17.5 72.5v666h-49q-64 0 -97.5 -34t-33.5 -85h-19z" />
<glyph unicode="&#x4a2;" horiz-adv-x="1300" d="M90 0v20h10q28 0 47 38t19 75v1092q0 35 -18.5 70.5t-47.5 35.5h-10v21h287v-21h-10q-29 0 -46.5 -35.5t-17.5 -70.5v-463h655v463q0 30 -16 66t-41 40h-16v21h286v-21h-10q-29 0 -47 -35.5t-18 -70.5v-1086q0 -30 17.5 -50.5t43.5 -20.5h113v-252h-21q0 56 -45.5 120 t-116.5 64h-202v20h10q28 0 45.5 37.5t17.5 75.5v559h-655v-559q0 -36 16.5 -74.5t42.5 -38.5h15v-20h-287z" />
<glyph unicode="&#x4a3;" horiz-adv-x="1091" d="M92 0v20q28 0 46 37.5t18 75.5v600q0 35 -18 71t-46 36v20h260v-20q-28 0 -44.5 -36t-16.5 -71v-248h467v248q0 35 -17.5 71t-46.5 36v20h260v-20q-28 0 -44.5 -36t-16.5 -71v-600q0 -29 17 -47t42 -18h97v-248h-21q0 33 -17.5 73.5t-56 73.5t-86.5 33h-174v20 q28 0 46 37.5t18 75.5v285h-467v-285q0 -36 17 -74.5t44 -38.5v-20h-260z" />
<glyph unicode="&#x4a4;" horiz-adv-x="1406" d="M113 0v20h10q28 0 46.5 38t18.5 75v1092q0 35 -18 70.5t-47 35.5h-10v21h286v-21h-10q-29 0 -46 -35t-17 -71v-463h655v463q0 35 -18.5 70.5t-47.5 35.5h-10v21h461v-213h-20q0 50 -39.5 97.5t-100.5 47.5h-88v-1151q0 -35 19 -74t45 -39h10v-20h-287v20h10q28 0 47 38 t19 75v557h-655v-557q0 -37 17.5 -75t45.5 -38h10v-20h-286z" />
<glyph unicode="&#x4a5;" horiz-adv-x="1187" d="M113 0v20q27 0 44 37.5t17 75.5v600q0 35 -17 71t-44 36v20h258v-20q-28 0 -45 -36t-17 -71v-248h467v248q0 35 -16.5 71t-44.5 36v20h411v-213h-20q0 50 -39 98t-100 48h-56v-660q0 -36 17.5 -74.5t44.5 -38.5v-20h-258v20q27 0 44 37.5t17 75.5v285h-467v-285 q0 -36 17.5 -74.5t44.5 -38.5v-20h-258z" />
<glyph unicode="&#x4aa;" horiz-adv-x="1269" d="M74 674q0 103 28.5 202.5t88.5 189.5t145.5 158t209 108t269.5 40q87 0 219 -37q59 -20 107 -20v-228h-21q-12 61 -44.5 105t-78.5 65.5t-92 31t-98 9.5q-117 0 -216 -35.5t-167.5 -95t-117 -138t-71 -164t-22.5 -173.5q0 -120 48 -236t128.5 -205t194.5 -143.5 t239 -54.5q43 0 86.5 8.5t95 30.5t94.5 68t66 112h21v-227q-44 0 -142 -25q-138 -33 -204 -38q-18 -193 -185 -332q-77 -65 -161 -103l-9 19q60 39 111 100q108 134 111 318q-152 14 -275 79t-199.5 161.5t-117.5 212t-41 237.5z" />
<glyph unicode="&#x4ab;" horiz-adv-x="892" d="M74 430q0 118 54 218t162.5 163t250.5 63q107 0 202 -51q39 -22 72 -22v-156h-20q-19 74 -94.5 117t-159.5 43q-81 0 -146.5 -29.5t-105.5 -78.5t-61 -109.5t-21 -126.5q0 -103 42 -195t124.5 -151.5t187.5 -59.5q113 0 185.5 56t80.5 122h21v-159q-21 0 -66 -25 q-72 -40 -147 -57q-18 -197 -182 -338q-71 -63 -164 -105l-8 19q63 41 110 100q109 142 111 322q-189 17 -308.5 140t-119.5 300z" />
<glyph unicode="&#x4ac;" horiz-adv-x="1021" d="M51 1128v224h920v-224h-21q0 54 -35 101t-96 47h-241v-1137q0 -30 17.5 -50.5t43.5 -20.5h113v-252h-21q0 56 -45.5 120t-116.5 64h-202v20h10q28 0 45.5 37.5t17.5 75.5v1143h-237q-61 0 -96 -47t-35 -101h-21z" />
<glyph unicode="&#x4ad;" horiz-adv-x="890" d="M51 645v215h789v-215h-19q0 53 -35 100.5t-96 47.5h-180v-660q0 -29 17 -47t42 -18h95v-248h-21q0 56 -44 118t-114 62h-172v20q28 0 46 37.5t18 75.5v660h-176q-61 0 -95 -47.5t-34 -100.5h-21z" />
<glyph unicode="&#x4ae;" horiz-adv-x="1083" d="M20 1331v21h283v-21q-15 -2 -27 -13t-12 -30q0 -10 6 -22l308 -539l294 510q15 35 15 45q-3 19 -14 31t-19 15t-14 3v21h219v-21q-48 0 -117 -114l-319 -553v-531q0 -35 19.5 -74t47.5 -39h10v-20h-292v20h10q30 0 48.5 37.5t18.5 75.5v512l-329 565q-80 121 -125 121 h-11z" />
<glyph unicode="&#x4af;" horiz-adv-x="1021" d="M66 840v20h270v-20q-9 0 -21 -15.5t-12 -36.5q0 -19 8 -32l252 -580l242 592q6 15 6 27q0 19 -13 32t-28 13v20h199v-20q-30 0 -55 -25.5t-40 -64.5l-270 -666v-401q0 -36 19 -74.5t47 -38.5v-21h-271v21q30 0 49 38t19 75v385l-303 684q-37 88 -98 88z" />
<glyph unicode="&#x4b0;" horiz-adv-x="1083" d="M8 1331v21h289v-21q-24 0 -39.5 -11.5t-15.5 -29.5q0 -16 8 -24l313 -541l295 512q14 32 14 45q0 28 -17 38.5t-30 10.5v21h219v-21q-47 0 -116 -114l-320 -553v-179h266v-69h-266v-283q0 -34 20 -73.5t48 -39.5h10v-20h-293v20h10q30 0 49 38t19 75v283h-266v69h266v160 l-328 565q-1 2 -16.5 27t-23.5 34.5t-24 27t-33.5 25t-37.5 7.5z" />
<glyph unicode="&#x4b1;" horiz-adv-x="1021" d="M66 840v20h270v-20q-9 0 -21 -15.5t-12 -36.5q0 -19 8 -32l252 -580l242 592q6 15 6 27q0 19 -13 32t-28 13v20h199v-20q-30 0 -55 -25.5t-40 -64.5l-270 -666v-129h238v-70h-238v-200q0 -36 19 -74.5t47 -38.5v-21h-271v21q30 0 49 38t19 75v200h-256v70h256v113 l-303 684q-37 88 -98 88z" />
<glyph unicode="&#x4b2;" horiz-adv-x="1155" d="M31 0v20q39 0 78.5 31.5t58.5 69.5l291 557l-285 532q-22 48 -56 84.5t-69 36.5v21h297v-21q-14 0 -28.5 -17t-14.5 -40q0 -16 8 -29l232 -428l211 408q1 3 6 12t7 13.5t4.5 13t2.5 16.5q0 28 -18.5 39.5t-32.5 11.5v21h235v-21q-34 -1 -68 -35.5t-56 -76.5l-250 -478 l303 -569q55 -104 119 -104h118v-252h-20q0 56 -45.5 120t-116.5 64h-209v20q13 0 27 17t14 39q0 16 -12 37l-260 487l-256 -487q-19 -33 -19 -62q0 -31 29 -31v-20h-225z" />
<glyph unicode="&#x4b3;" horiz-adv-x="1214" d="M125 0v20q28 0 60 23t57 57l247 336l-229 312q-75 92 -121 92v20h299v-20q-15 0 -27 -9t-12 -30q0 -13 13 -29l166 -229l157 209q25 29 25 55q0 13 -8 23t-21 10v20h197v-20q-47 0 -113 -95l-199 -262l240 -323q66 -92 129 -92h127v-248h-20q0 33 -17.5 73.5t-56 73.5 t-86.5 33h-211v20q17 0 28 8.5t11 20.5q0 14 -25 45q-36 46 -103.5 141.5t-103.5 141.5l-211 -289q-22 -27 -22 -47q0 -21 22 -21v-20h-192z" />
<glyph unicode="&#x4b4;" horiz-adv-x="1527" d="M41 1128v224h836v-224h-21q0 54 -35 101t-96 47h-197v-1204h617v1147q0 37 -15.5 72.5t-46.5 39.5h-12v21h285v-21h-19q-28 -4 -41.5 -39t-13.5 -73v-1037q0 -46 23 -78t69 -32h103v-256h-21q-3 39 -21 79t-59 72.5t-94 32.5h-965v20h11q32 0 46.5 33t14.5 72v1151h-196 q-61 0 -96.5 -47t-35.5 -101h-20z" />
<glyph unicode="&#x4b5;" horiz-adv-x="1224" d="M41 645v215h688v-215h-18q0 53 -35 100.5t-96 47.5h-127v-725h446v659q0 39 -15.5 76t-47.5 37v20h260v-20q-32 0 -47 -36t-15 -77v-547q0 -112 84 -112h66v-248h-21q0 57 -51 118.5t-113 61.5h-743v20q26 0 43.5 37.5t17.5 69.5v666h-127q-61 0 -95 -47.5t-34 -100.5 h-20z" />
<glyph unicode="&#x4b6;" horiz-adv-x="1191" d="M113 1333v21h284v-21h-10q-28 0 -49 -36.5t-21 -69.5v-250q0 -129 94 -215t210 -86q95 0 219 88v463q0 32 -16.5 67t-41.5 39h-16v21h291v-21h-17q-28 -4 -45.5 -38.5t-17.5 -67.5v-1088q0 -30 17.5 -50.5t43.5 -20.5h113v-252h-21q0 56 -45 120t-116 64h-203v20h10 q28 0 46 37.5t18 75.5v543q-48 -36 -117 -62t-141 -26q-181 0 -291.5 116t-110.5 285v238q0 34 -16.5 70t-40.5 36h-10z" />
<glyph unicode="&#x4b7;" d="M82 842v20h240v-20q-24 0 -41 -36.5t-17 -70.5v-82q0 -66 20 -117t52 -79t67.5 -42t71.5 -14q101 0 187 105v229q0 34 -17.5 70.5t-44.5 36.5v20h260v-20q-26 0 -44.5 -37t-18.5 -70v-602q0 -29 17 -47t42 -18h96v-248h-20q0 33 -17.5 73.5t-56 73.5t-86.5 33h-174v20 q28 0 46 37.5t18 75.5v281q-50 -52 -102.5 -76.5t-127.5 -24.5q-95 0 -166 50t-104 125.5t-33 164.5v82q0 34 -13.5 70.5t-33.5 36.5z" />
<glyph unicode="&#x4b8;" horiz-adv-x="1126" d="M80 1331v21h289v-21h-13q-28 0 -48.5 -36t-20.5 -70v-250q0 -111 76 -192.5t178 -104.5v205h69v-209q80 7 199 88v463q0 34 -19 70t-47 36h-10v21h293v-21h-16q-28 0 -46 -35.5t-18 -70.5v-1096q0 -35 18 -72t46 -37h16v-20h-293v20h10q28 0 47 36.5t19 72.5v545 q-68 -62 -199 -84v-238h-69v234q-116 3 -206 59t-137.5 146t-47.5 196v238q0 34 -17 70t-41 36h-12z" />
<glyph unicode="&#x4b9;" horiz-adv-x="950" d="M63 840v20h240v-20q-24 0 -40.5 -36.5t-16.5 -70.5v-82q0 -113 53 -174.5t127 -75.5v248h68v-248q73 14 149 103v229q0 35 -17.5 71t-45.5 36v20h266v-20q-28 0 -48 -36.5t-20 -70.5v-604q0 -35 20 -72t48 -37v-20h-266v20q28 0 45.5 36.5t17.5 72.5v283 q-40 -40 -72.5 -61.5t-76.5 -31.5v-196h-68v188h-12q-95 0 -166 50t-104 125.5t-33 164.5v82q0 34 -14 70.5t-34 36.5z" />
<glyph unicode="&#x4ba;" horiz-adv-x="1116" d="M90 0v20h10q28 0 49 37t21 70v1096q0 35 -20.5 71.5t-49.5 36.5h-10v21h293v-21h-16q-29 0 -44.5 -35.5t-15.5 -72.5v-439q43 44 112 71.5t148 27.5q184 0 292 -114.5t108 -305.5v-336q0 -34 15 -70.5t36 -36.5h18v-20h-288v20h12q28 0 48.5 36.5t20.5 70.5v367 q0 132 -77.5 216.5t-186.5 84.5q-30 0 -63 -8t-68.5 -28t-63 -50t-45.5 -78t-18 -107v-397q0 -35 16.5 -71t43.5 -36h16v-20h-293z" />
<glyph unicode="&#x4bb;" horiz-adv-x="1089" d="M90 1278v20l205 64v-592q98 113 264 113q74 0 135 -22t101 -57.5t68 -82.5t40 -95.5t12 -97.5v-395q0 -36 19 -74.5t47 -38.5v-20h-264v20q28 0 46.5 38.5t18.5 74.5v381q0 141 -71.5 217t-171.5 76q-95 0 -169.5 -68t-74.5 -170v-436q0 -36 18.5 -74.5t46.5 -38.5v-20 h-266v20q28 0 47 38.5t19 74.5v1047q0 29 -3 47t-19.5 34t-47.5 17z" />
<glyph unicode="&#x4c0;" horiz-adv-x="497" d="M100 0v20h11q30 0 48.5 37.5t18.5 75.5v1092q0 35 -19 70.5t-48 35.5h-11v21h293v-21h-10q-27 0 -46.5 -35.5t-19.5 -70.5v-1092q0 -36 19 -74.5t47 -38.5h10v-20h-293z" />
<glyph unicode="&#x4c3;" horiz-adv-x="1095" d="M113 0v20q29 0 48 38t19 75v1092q0 34 -18.5 70t-46.5 36v21h272v-21q-28 0 -49 -36.5t-21 -69.5v-475l521 516q22 22 22 43q0 22 -29 22v21h224v-21q-50 0 -121 -71l-399 -398h24q79 0 141.5 -22.5t102.5 -59t66.5 -86.5t37.5 -102t11 -109v-442q0 -214 -177 -371 q-61 -57 -174 -112l-10 18q62 43 111 109q112 151 112 331v539q0 98 -66 165.5t-167 67.5q-44 0 -103 -16l-127 -127v-512q0 -34 20 -73.5t48 -39.5v-20h-272z" />
<glyph unicode="&#x4c4;" horiz-adv-x="854" d="M82 0v20q28 0 45.5 36.5t17.5 72.5v604q0 36 -17.5 72.5t-45.5 36.5v20h266v-20q-29 0 -48 -37t-19 -72v-244l331 314q21 21 21 28q0 11 -17 11v20h177v-20q-21 0 -64 -27l-258 -244h12q310 0 310 -387v-28q0 -237 -175 -445q-76 -87 -172 -157l-14 14q57 60 113 151 q114 192 114 408v68q0 153 -44.5 228t-145.5 75q-61 0 -112.5 -37t-75.5 -94v-238q0 -35 19 -72t48 -37v-20h-266z" />
<glyph unicode="&#x4c7;" horiz-adv-x="1284" d="M102 0v20h11q28 0 46.5 38t18.5 75v1092q0 35 -18 70.5t-47 35.5h-11v21h287v-21h-10q-29 0 -46.5 -35.5t-17.5 -70.5v-463h656v463q0 35 -18.5 70.5t-47.5 35.5h-10v21h287v-21h-11q-29 0 -46 -35t-17 -71v-1225q0 -211 -197 -387q-90 -77 -186 -121l-10 14 q73 60 129 134q127 177 127 358v692h-656v-557q0 -37 18 -75t46 -38h10v-20h-287z" />
<glyph unicode="&#x4c8;" horiz-adv-x="1024" d="M82 0v20q27 0 44 37.5t17 75.5v600q0 35 -17 71t-44 36v20h258v-20q-28 0 -44.5 -36t-16.5 -71v-248h466v248q0 35 -16.5 71t-44.5 36v20h258v-20q-29 0 -45 -35.5t-16 -71.5v-733q0 -213 -195 -387q-90 -77 -186 -121l-11 14q73 60 129 134q127 177 127 360v418h-466 v-285q0 -36 17 -74.5t44 -38.5v-20h-258z" />
<glyph unicode="&#x4d0;" horiz-adv-x="1208" d="M29 0v20h10q25 0 50 30.5t44 76.5l469 1249l459 -1237q39 -119 106 -119h11v-20h-304v20h11q49 0 49 46q0 16 -6 34l-185 498h-358l-178 -489q-6 -15 -6 -31q0 -25 13.5 -41.5t31.5 -16.5h10v-20h-227zM375 1667h12q2 -15 13.5 -34.5t34.5 -43t67.5 -39.5t101.5 -16 q59 0 102.5 15.5t66.5 40.5t32.5 42t15.5 35h13q0 -74 -66 -143.5t-162 -69.5q-93 0 -162 68t-69 145zM406 668h315l-158 428z" />
<glyph unicode="&#x4d1;" horiz-adv-x="935" d="M74 199q0 56 25.5 101.5t69 80.5t116.5 67t153.5 56.5t194.5 52.5q-3 61 -23 108t-47 73.5t-62.5 43t-65 22t-58.5 5.5q-98 0 -159.5 -52t-86.5 -128h-18v159q16 0 43.5 13.5t57 29.5t83.5 29.5t115 13.5q74 0 131.5 -12.5t95 -37t63 -54t39 -69.5t18.5 -78t5 -84v-406 q0 -44 21 -78.5t55 -34.5v-20h-207v104l-10 -10q-108 -108 -279 -108q-135 0 -202.5 59.5t-67.5 153.5zM197 1204h12q2 -15 13.5 -34.5t34.5 -43t67.5 -39.5t101.5 -16q59 0 102.5 15.5t66.5 40.5t32.5 42t15.5 35h12q0 -74 -65.5 -143.5t-161.5 -69.5q-93 0 -162 68 t-69 145zM205 215q0 -67 53 -109.5t139 -42.5q116 0 213 107l23 25v292l-21 -4q-407 -101 -407 -268z" />
<glyph unicode="&#x4d2;" horiz-adv-x="1208" d="M29 0v20h10q25 0 50 30.5t44 76.5l469 1249l459 -1237q39 -119 106 -119h11v-20h-304v20h11q49 0 49 46q0 16 -6 34l-185 498h-358l-178 -489q-6 -15 -6 -31q0 -25 13.5 -41.5t31.5 -16.5h10v-20h-227zM406 668h315l-158 428zM422 1470q0 29 18 47.5t47 18.5t47.5 -18.5 t18.5 -47.5t-18.5 -47t-47.5 -18t-47 18t-18 47zM659 1470q0 29 19.5 47.5t48.5 18.5q25 0 43 -18.5t18 -47.5t-18 -47t-43 -18q-30 0 -49 18t-19 47z" />
<glyph unicode="&#x4d3;" horiz-adv-x="935" d="M74 199q0 56 25.5 101.5t69 80.5t116.5 67t153.5 56.5t194.5 52.5q-3 61 -23 108t-47 73.5t-62.5 43t-65 22t-58.5 5.5q-93 0 -154 -50.5t-92 -119.5h-18v149q13 1 34.5 12.5t30.5 14.5q5 2 34.5 15.5t50.5 21t62.5 15t86.5 7.5q74 0 131.5 -12.5t95 -37t63 -54t39 -69.5 t18.5 -78t5 -84v-406q0 -44 19 -78.5t48 -34.5v-20h-198v104l-10 -10q-108 -108 -279 -108q-135 0 -202.5 59.5t-67.5 153.5zM205 215q0 -67 53 -109.5t139 -42.5q116 0 213 107l23 25v292l-21 -4q-407 -101 -407 -268zM227 1067q0 29 18 46t48 17q29 0 47 -17t18 -46 t-18 -47.5t-47 -18.5t-47.5 18.5t-18.5 47.5zM465 1067q0 29 18 46t47 17q27 0 45.5 -17.5t18.5 -45.5q0 -29 -18.5 -47.5t-45.5 -18.5q-29 0 -47 18.5t-18 47.5z" />
<glyph unicode="&#x4d4;" horiz-adv-x="1638" d="M31 0v20h10q52 0 123 111l684 1124q0 27 -22 51.5t-46 24.5h-10v21h743v-201h-20v10q0 51 -33 85t-96 34h-377v-518h297q47 0 79 28.5t32 67.5v10h20v-276h-20v10q0 38 -31 64t-80 26h-297v-620h406q70 0 110.5 59t40.5 123v10h21v-264h-795v20h10q30 0 50 37t20 72v565 h-262l-352 -577q-25 -40 -25 -60q0 -37 37 -37h10v-20h-227zM631 762h219v364z" />
<glyph unicode="&#x4d5;" horiz-adv-x="1554" d="M92 201q0 56 25 101.5t68 80.5t116 66.5t153 56t195 53.5q-3 61 -22.5 108t-46.5 73.5t-62.5 43t-65.5 22t-59 5.5q-165 0 -243 -170h-19v150q25 2 64 26q81 60 233 60q237 0 317 -150q129 150 338 150q100 0 175 -34t120.5 -97t67.5 -145.5t22 -184.5h-688v-19 q12 -94 50.5 -168.5t113 -123t174.5 -48.5q62 0 126.5 22.5t117 67.5t68.5 103h20v-154q-19 0 -66 -28q-37 -22 -67.5 -36.5t-93 -29t-133.5 -14.5q-121 0 -218.5 47t-156.5 139l-76 -78q-105 -108 -279 -108q-135 0 -201.5 59.5t-66.5 153.5zM221 215q0 -66 53.5 -107.5 t139.5 -41.5q63 0 111.5 26.5t101.5 75.5l61 59q-39 91 -39 215q0 36 2 52l-22 -9q-45 -11 -77 -20.5t-86 -27.5t-91.5 -38.5t-75.5 -47.5t-58 -62t-20 -74zM780 489h561q-2 62 -18 117t-47 101.5t-82.5 74t-118.5 27.5q-65 0 -119 -26t-89 -70t-56.5 -95.5t-30.5 -109.5 v-19z" />
<glyph unicode="&#x4d6;" d="M92 0v20h10q28 0 49 37t21 72v1096q0 33 -21 69.5t-49 36.5h-10v21h789v-191h-21q-5 52 -39.5 85.5t-99.5 33.5h-412v-518h340q47 0 79 28.5t32 67.5h20v-256h-20q0 38 -31 64t-80 26h-340v-620h449q70 0 111.5 57t41.5 111h21v-240h-840zM266 1669h13q2 -15 13.5 -34.5 t34.5 -43t67.5 -39.5t101.5 -16q59 0 102.5 15.5t66.5 40.5t32.5 42t15.5 35h12q0 -74 -65.5 -143.5t-161.5 -69.5q-93 0 -162.5 68t-69.5 145z" />
<glyph unicode="&#x4d7;" d="M76 440q0 63 15.5 124t50 117.5t84.5 99t123 68t161 25.5q133 0 226 -60.5t136 -162t43 -237.5h-710q19 -153 111.5 -256t248.5 -103q62 0 126.5 22.5t117 67.5t68.5 103h18v-154q-17 0 -64 -28q-37 -22 -67.5 -36.5t-93 -29t-133.5 -14.5q-94 0 -175.5 27t-146 80.5 t-102 142.5t-37.5 204zM205 487h583q-3 83 -34.5 153.5t-97 118.5t-154.5 48t-156 -49t-99.5 -119t-41.5 -152zM266 1194h13q2 -15 13.5 -34.5t34.5 -43t67.5 -39.5t101.5 -16q59 0 102.5 15.5t66.5 40.5t32.5 42t15.5 35h12q0 -74 -65.5 -143.5t-161.5 -69.5 q-93 0 -162.5 68t-69.5 145z" />
<glyph unicode="&#x4d8;" horiz-adv-x="1433" d="M80 756h1124q0 98 -39.5 193t-111.5 173t-185.5 126t-249.5 48q-52 0 -126 -16t-152.5 -45t-138.5 -80t-72 -111h-20v209q35 0 163 41q249 74 361 74q151 0 274.5 -40t204 -105.5t135.5 -151.5t79 -174t24 -178q0 -116 -24.5 -222.5t-77 -200t-127.5 -163t-183.5 -109.5 t-237.5 -40q-293 0 -456.5 196t-163.5 576zM205 672q2 -93 18.5 -179.5t54 -169t91.5 -143.5t137.5 -98t185.5 -37q84 3 155 25t123 57t93.5 83t68 102t44 116t25 121.5t7.5 122.5h-1003z" />
<glyph unicode="&#x4d9;" d="M76 446h712q0 94 -43 175t-126.5 132.5t-190.5 51.5q-63 0 -127.5 -22.5t-116 -67.5t-67.5 -103h-21v154q17 0 66 29q132 79 295 79q94 0 175 -27t145 -80.5t101 -142.5t37 -204q0 -63 -15.5 -124t-50 -117.5t-84 -99t-123 -68t-161.5 -25.5q-197 0 -301 126t-104 334z M205 373q0 -60 18.5 -116.5t53 -102.5t90 -73.5t122.5 -27.5q91 0 161 48.5t104 120.5t34 151h-583z" />
<glyph unicode="&#x4da;" horiz-adv-x="1433" d="M80 756h1124q0 98 -39.5 193t-111.5 173t-185.5 126t-249.5 48q-52 0 -126 -16t-152.5 -45t-138.5 -80t-72 -111h-20v209q35 0 163 41q249 74 361 74q151 0 274.5 -40t204 -105.5t135.5 -151.5t79 -174t24 -178q0 -116 -24.5 -222.5t-77 -200t-127.5 -163t-183.5 -109.5 t-237.5 -40q-293 0 -456.5 196t-163.5 576zM205 672q2 -93 18.5 -179.5t54 -169t91.5 -143.5t137.5 -98t185.5 -37q84 3 155 25t123 57t93.5 83t68 102t44 116t25 121.5t7.5 122.5h-1003zM489 1470q0 29 18.5 47.5t47.5 18.5t47.5 -18.5t18.5 -47.5t-18.5 -47t-47.5 -18 t-47.5 18t-18.5 47zM727 1470q0 29 19.5 47.5t48.5 18.5q25 0 43 -18.5t18 -47.5t-18 -47t-43 -18q-30 0 -49 18t-19 47z" />
<glyph unicode="&#x4db;" d="M76 446h712q0 94 -43 175t-126.5 132.5t-190.5 51.5q-63 0 -127.5 -22.5t-116 -67.5t-67.5 -103h-21v154q17 0 66 29q132 79 295 79q94 0 175 -27t145 -80.5t101 -142.5t37 -204q0 -63 -15.5 -124t-50 -117.5t-84 -99t-123 -68t-161.5 -25.5q-197 0 -301 126t-104 334z M205 373q0 -60 18.5 -116.5t53 -102.5t90 -73.5t122.5 -27.5q91 0 161 48.5t104 120.5t34 151h-583zM260 1067q0 29 18 46t48 17q29 0 47 -17t18 -46t-18 -47.5t-47 -18.5t-47.5 18.5t-18.5 47.5zM498 1067q0 29 18 46t47 17q27 0 45.5 -17.5t18.5 -45.5q0 -29 -18.5 -47.5 t-45.5 -18.5q-29 0 -47 18.5t-18 47.5z" />
<glyph unicode="&#x4dc;" horiz-adv-x="1701" d="M25 0v20q34 0 65.5 19t60.5 58.5t41 60t34 62.5q3 6 5 9l162 328q49 102 125 153.5t195 51.5l-461 485q-78 82 -139 84v21h223v-21q-23 -7 -23 -22q0 -7 9 -19l454 -487v422q0 35 -18 70.5t-47 35.5h-11v21h289v-21h-16q-27 -4 -44.5 -38.5t-17.5 -67.5v-422l457 487 q8 8 8 19q0 22 -24 22v21h223v-21q-69 -9 -137 -84l-461 -485q123 0 195.5 -50t125.5 -155l160 -328q18 -37 32.5 -61.5t42.5 -64.5t62 -61.5t70 -21.5v-20h-96q-43 0 -79 12.5t-58.5 28t-46.5 48t-35.5 53.5t-32.5 63l-164 330q-89 174 -242 174v-576q0 -35 18 -74t46 -39 h14v-20h-289v20h11q29 0 47 37.5t18 75.5v576q-152 0 -239 -174l-164 -330q-23 -48 -40.5 -77.5t-47.5 -62.5t-71 -49t-95 -16h-94zM662 1470q0 29 18 47.5t47 18.5t47.5 -18.5t18.5 -47.5t-18.5 -47t-47.5 -18t-47 18t-18 47zM899 1470q0 29 19.5 47.5t48.5 18.5 q25 0 43 -18.5t18 -47.5t-18 -47t-43 -18q-30 0 -49 18t-19 47z" />
<glyph unicode="&#x4dd;" horiz-adv-x="1284" d="M29 0v20q43 4 94 47.5t76 94.5l96 198q26 49 85 84t132 39q-27 26 -149.5 142.5t-184.5 173.5q-52 39 -78 41v20h158v-22q-6 -3 -6 -7q0 -9 6 -18l315 -293v211q0 34 -18.5 69.5t-48.5 39.5v20h262v-20q-29 -4 -48.5 -39.5t-19.5 -69.5v-211l318 297q4 4 4 14q0 4 -6 7 v22h158v-20q-16 0 -50 -21l-28 -20l-334 -316q80 -1 135.5 -34t81.5 -89l96 -198q26 -51 76 -94.5t94 -47.5v-20h-71q-81 0 -130 33t-81 94l-99 192q-19 47 -66 81.5t-98 39.5v-305q0 -35 19 -73t49 -42v-20h-262v20q30 4 48.5 41.5t18.5 73.5v305q-52 -4 -95.5 -38 t-67.5 -83l-97 -192q-62 -127 -213 -127h-71zM453 1067q0 29 18 46t47 17q30 0 48 -17t18 -46t-18.5 -47.5t-47.5 -18.5t-47 18.5t-18 47.5zM690 1067q0 29 18 46t48 17q27 0 45 -17t18 -46t-18 -47.5t-45 -18.5q-29 0 -47.5 18.5t-18.5 47.5z" />
<glyph unicode="&#x4de;" horiz-adv-x="948" d="M23 47v227h20q35 -110 118.5 -165.5t188.5 -55.5q87 0 165 36t128.5 107t50.5 160q0 144 -102.5 247.5t-255.5 103.5h-74v69h84q128 0 216.5 70t88.5 188q0 117 -85.5 190.5t-196.5 73.5q-91 0 -166.5 -54t-106.5 -157h-20v228h18q24 0 80 18q124 39 221 39 q185 0 294.5 -95.5t109.5 -234.5q0 -190 -207 -297q135 -60 201.5 -153.5t66.5 -208.5q0 -81 -34 -153.5t-96.5 -128.5t-157.5 -88.5t-210 -32.5q-131 0 -231 45q-52 22 -90 22h-18zM193 1470q0 29 18 47.5t47 18.5t47.5 -18.5t18.5 -47.5t-18.5 -47t-47.5 -18t-47 18 t-18 47zM430 1470q0 29 19.5 47.5t48.5 18.5q25 0 43 -18.5t18 -47.5t-18 -47t-43 -18q-30 0 -49 18t-19 47z" />
<glyph unicode="&#x4df;" horiz-adv-x="780" d="M18 76v166h19q7 -83 87.5 -133t188.5 -50q103 0 179.5 45t76.5 127q0 58 -42.5 103t-103.5 66.5t-126 21.5h-66v65h72q86 0 150.5 50.5t64.5 113.5q0 69 -69 113.5t-158 44.5q-85 0 -145.5 -41t-71.5 -123h-19v160q28 0 64 20q88 47 198 47q158 0 246 -57t88 -156 q0 -51 -44 -107t-115 -87q109 -23 162 -81.5t53 -131.5q0 -122 -109 -191t-262 -69q-80 0 -150.5 21t-113.5 42t-54 21zM141 1067q0 29 18 46t48 17q29 0 47 -17t18 -46t-18 -47.5t-47 -18.5t-47.5 18.5t-18.5 47.5zM379 1067q0 29 18 46t47 17q27 0 45.5 -17.5t18.5 -45.5 q0 -29 -18.5 -47.5t-45.5 -18.5q-29 0 -47 18.5t-18 47.5z" />
<glyph unicode="&#x4e2;" horiz-adv-x="1300" d="M92 0v20h10q30 0 49 38t19 75v1092q0 34 -19.5 70t-48.5 36h-10v21h291v-21h-16q-27 -4 -44.5 -39t-17.5 -67v-946l680 919v27q0 35 -19 70.5t-48 35.5h-11v21h291v-21h-10q-28 0 -48 -36t-20 -70v-1092q0 -34 20 -73.5t48 -39.5h10v-20h-291v20h11q30 0 48.5 37.5 t18.5 75.5v938l-680 -919v-19q0 -36 20 -74.5t48 -38.5h10v-20h-291zM444 1460v82h410v-82h-410z" />
<glyph unicode="&#x4e3;" horiz-adv-x="1083" d="M94 0v20q28 0 46 37.5t18 75.5v600q0 35 -18 71t-46 36v20h260v-20q-28 0 -44.5 -36t-16.5 -71v-489l487 477v12q0 35 -17.5 71t-45.5 36v20h262v-20q-32 0 -49 -35.5t-17 -71.5v-600q0 -35 20 -74t46 -39v-20h-262v20q28 0 45.5 37.5t17.5 75.5v492l-487 -478v-14 q0 -36 17 -74.5t44 -38.5v-20h-260zM336 969v82h409v-82h-409z" />
<glyph unicode="&#x4e4;" horiz-adv-x="1300" d="M92 0v20h10q30 0 49 38t19 75v1092q0 34 -19.5 70t-48.5 36h-10v21h291v-21h-16q-27 -4 -44.5 -39t-17.5 -67v-946l680 919v27q0 35 -19 70.5t-48 35.5h-11v21h291v-21h-10q-28 0 -48 -36t-20 -70v-1092q0 -34 20 -73.5t48 -39.5h10v-20h-291v20h11q30 0 48.5 37.5 t18.5 75.5v938l-680 -919v-19q0 -36 20 -74.5t48 -38.5h10v-20h-291zM469 1470q0 29 18.5 47.5t47.5 18.5t47 -18.5t18 -47.5t-18 -47t-47 -18t-47.5 18t-18.5 47zM707 1470q0 29 19 47.5t48 18.5q25 0 43.5 -18.5t18.5 -47.5q0 -28 -18 -46.5t-44 -18.5q-29 0 -48 18 t-19 47z" />
<glyph unicode="&#x4e5;" horiz-adv-x="1083" d="M94 0v20q28 0 46 37.5t18 75.5v600q0 35 -18 71t-46 36v20h260v-20q-28 0 -44.5 -36t-16.5 -71v-489l487 477v12q0 35 -17.5 71t-45.5 36v20h262v-20q-32 0 -49 -35.5t-17 -71.5v-600q0 -35 20 -74t46 -39v-20h-262v20q28 0 45.5 37.5t17.5 75.5v492l-487 -478v-14 q0 -36 17 -74.5t44 -38.5v-20h-260zM358 1067q0 29 18 46t48 17q29 0 47 -17t18 -46t-18 -47.5t-47 -18.5t-47.5 18.5t-18.5 47.5zM596 1067q0 29 18 46t48 17q27 0 45 -17t18 -46t-18 -47.5t-45 -18.5q-29 0 -47.5 18.5t-18.5 47.5z" />
<glyph unicode="&#x4e6;" horiz-adv-x="1558" d="M76 662q0 106 30 209t90 193.5t143 159t197.5 108.5t245.5 40q124 0 234 -36.5t192 -101t141.5 -151t90 -190t30.5 -213.5q0 -200 -97 -361.5t-260.5 -250t-358.5 -88.5q-153 0 -282.5 57t-215 152t-133 218t-47.5 255zM213 690q0 -113 43.5 -227t117 -205.5t181 -149 t225.5 -57.5q106 5 197.5 43t155.5 98t109.5 137.5t67 160t21.5 165.5q0 114 -41.5 228t-114.5 207t-183 151.5t-236 58.5q-98 0 -186 -36.5t-152 -98t-111 -140t-70.5 -165t-23.5 -170.5zM592 1470q0 29 18 47.5t47 18.5t47.5 -18.5t18.5 -47.5t-18.5 -47t-47.5 -18t-47 18 t-18 47zM829 1470q0 29 19.5 47.5t48.5 18.5q25 0 43 -18.5t18 -47.5t-18 -47t-43 -18q-30 0 -49 18t-19 47z" />
<glyph unicode="&#x4e7;" horiz-adv-x="1071" d="M76 424q0 199 130 324.5t329 125.5q196 0 321 -120.5t125 -309.5q0 -90 -30.5 -171.5t-86.5 -146t-144.5 -102.5t-197.5 -38q-200 0 -323 124t-123 314zM209 446q0 -102 40.5 -191.5t118 -145.5t175.5 -56q74 0 134.5 32.5t97.5 86t57 117.5t20 131q0 70 -21.5 137 t-62 123.5t-108 91.5t-150.5 35q-140 -7 -220.5 -113.5t-80.5 -247.5zM330 1067q0 29 18 46t47 17q30 0 48 -17t18 -46t-18.5 -47.5t-47.5 -18.5t-47 18.5t-18 47.5zM567 1067q0 29 18 46t48 17q27 0 45 -17t18 -46t-18 -47.5t-45 -18.5q-29 0 -47.5 18.5t-18.5 47.5z" />
<glyph unicode="&#x4e8;" horiz-adv-x="1558" d="M76 662q0 106 30 209t90 193.5t143 159t197.5 108.5t245.5 40q124 0 234 -36.5t192 -101t141.5 -151t90 -190t30.5 -213.5q0 -200 -97 -361.5t-260.5 -250t-358.5 -88.5q-153 0 -282.5 57t-215 152t-133 218t-47.5 255zM213 719h1114q-10 107 -56 210.5t-118 186 t-176.5 133.5t-220.5 51q-118 0 -220.5 -52.5t-170.5 -136.5t-108 -186.5t-44 -205.5zM215 637q10 -108 57 -213t120 -188t175 -134t213 -51q104 5 194 41.5t153 94t109 132t69 155t26 163.5h-1116z" />
<glyph unicode="&#x4e9;" horiz-adv-x="1071" d="M76 424q0 199 130 324.5t329 125.5q196 0 321 -120.5t125 -309.5q0 -90 -30.5 -171.5t-86.5 -146t-144.5 -102.5t-197.5 -38q-200 0 -323 124t-123 314zM209 475h639q-3 37 -17 80q-35 111 -117 181.5t-204 70.5q-105 -6 -177.5 -69.5t-105.5 -162.5q-15 -50 -18 -100z M211 393q15 -80 20 -94q39 -110 120 -178t192 -68q109 0 182.5 66.5t105.5 169.5q16 57 19 104h-639z" />
<glyph unicode="&#x4ea;" horiz-adv-x="1558" d="M76 662q0 106 30 209t90 193.5t143 159t197.5 108.5t245.5 40q124 0 234 -36.5t192 -101t141.5 -151t90 -190t30.5 -213.5q0 -200 -97 -361.5t-260.5 -250t-358.5 -88.5q-153 0 -282.5 57t-215 152t-133 218t-47.5 255zM213 719h1114q-10 107 -56 210.5t-118 186 t-176.5 133.5t-220.5 51q-118 0 -220.5 -52.5t-170.5 -136.5t-108 -186.5t-44 -205.5zM215 637q10 -108 57 -213t120 -188t175 -134t213 -51q104 5 194 41.5t153 94t109 132t69 155t26 163.5h-1116zM596 1470q0 29 18.5 47.5t47.5 18.5t47 -18.5t18 -47.5t-18 -47t-47 -18 t-47.5 18t-18.5 47zM834 1470q0 29 19 47.5t48 18.5q25 0 43.5 -18.5t18.5 -47.5q0 -28 -18.5 -46.5t-43.5 -18.5q-29 0 -48 18t-19 47z" />
<glyph unicode="&#x4eb;" horiz-adv-x="1071" d="M76 424q0 199 130 324.5t329 125.5q196 0 321 -120.5t125 -309.5q0 -90 -30.5 -171.5t-86.5 -146t-144.5 -102.5t-197.5 -38q-200 0 -323 124t-123 314zM209 475h639q-3 37 -17 80q-35 111 -117 181.5t-204 70.5q-105 -6 -177.5 -69.5t-105.5 -162.5q-15 -50 -18 -100z M211 393q15 -80 20 -94q39 -110 120 -178t192 -68q109 0 182.5 66.5t105.5 169.5q16 57 19 104h-639zM342 1067q0 29 18 46t48 17q29 0 47 -17t18 -46t-18 -47.5t-47 -18.5t-47.5 18.5t-18.5 47.5zM580 1067q0 29 18 46t47 17q27 0 45.5 -17.5t18.5 -45.5q0 -29 -18.5 -47.5 t-45.5 -18.5q-29 0 -47 18.5t-18 47.5z" />
<glyph unicode="&#x4ec;" horiz-adv-x="1230" d="M39 45v209h20q23 -65 68.5 -110t101.5 -64t100.5 -26t92.5 -7q125 0 235 53.5t186.5 142.5t121.5 206t47 243h-531q-50 0 -81 -26t-31 -64h-19v256h19q0 -39 32 -67.5t80 -28.5h529q-10 80 -39.5 156.5t-81.5 146t-120.5 121.5t-163.5 83t-204 31q-44 0 -77.5 -3.5 t-72 -15t-66 -31.5t-49.5 -56t-32 -86h-20v209q37 0 100 18q132 37 232 37q146 0 268.5 -36.5t207 -99t143.5 -147t86.5 -179.5t27.5 -197q0 -151 -58 -288.5t-156 -237.5t-236 -159t-291 -59q-131 0 -279 54q-68 22 -90 22zM238 1470q0 29 18 47.5t47 18.5t47.5 -18.5 t18.5 -47.5t-18.5 -47t-47.5 -18t-47 18t-18 47zM475 1470q0 29 19.5 47.5t48.5 18.5q25 0 43 -18.5t18 -47.5t-18 -47t-43 -18q-30 0 -49 18t-19 47z" />
<glyph unicode="&#x4ed;" horiz-adv-x="856" d="M18 53v150h17q64 -148 241 -148q86 0 155.5 32t112.5 85t67 116t26 130h-277q-47 0 -76 -19.5t-34 -52.5h-21v205h21q3 -66 110 -66h275q-17 136 -114 228t-226 92q-185 0 -248 -168h-16v156q21 0 61 22q101 59 234 59q122 0 224 -54t162 -152t60 -219 q0 -197 -132.5 -330t-334.5 -133q-127 0 -215 47q-36 20 -72 20zM143 1067q0 29 18 46t48 17q29 0 47 -17t18 -46t-18 -47.5t-47 -18.5t-47.5 18.5t-18.5 47.5zM381 1067q0 29 18 46t47 17q27 0 45.5 -17.5t18.5 -45.5q0 -29 -18.5 -47.5t-45.5 -18.5q-29 0 -47 18.5 t-18 47.5z" />
<glyph unicode="&#x4ee;" horiz-adv-x="1114" d="M14 1331v21h285v-21h-12q-39 0 -39 -41q0 -12 6 -30l350 -766l314 743q10 30 10 43q0 26 -17.5 38.5t-33.5 12.5v21h219v-21q-55 0 -86 -59l-492 -1176q-47 -114 -153 -114q-36 -1 -69.5 15t-51.5 32t-15 16l52 113q37 -82 98 -82q47 0 72 55l79 195l-426 940 q-27 62 -90 65zM352 1460v82h410v-82h-410z" />
<glyph unicode="&#x4ef;" horiz-adv-x="970" d="M39 840v20h264v-20q-9 0 -21 -15.5t-12 -36.5q0 -17 9 -32l251 -580l242 592q6 15 6 27q0 19 -13 32t-28 13v20h199v-20q-30 0 -54.5 -25.5t-39.5 -64.5l-422 -1043q-50 -147 -164 -147q-36 0 -69.5 16t-51 32.5t-14.5 16.5l67 166q9 -34 21 -55q27 -53 74 -53 q50 0 77 71l99 252l-328 746q-1 3 -8 17l-8.5 17t-8 14t-10 14t-10.5 10t-13 9t-15 4.5t-19 2.5zM281 969v82h409v-82h-409z" />
<glyph unicode="&#x4f0;" horiz-adv-x="1114" d="M14 1331v21h285v-21h-12q-39 0 -39 -41q0 -12 6 -30l350 -766l314 743q10 30 10 43q0 26 -17.5 38.5t-33.5 12.5v21h219v-21q-55 0 -86 -59l-492 -1176q-47 -114 -153 -114q-36 -1 -69.5 15t-51.5 32t-15 16l52 113q37 -82 98 -82q47 0 72 55l79 195l-426 940 q-27 62 -90 65zM422 1470q0 29 18 47.5t47 18.5t47.5 -18.5t18.5 -47.5t-18.5 -47t-47.5 -18t-47 18t-18 47zM659 1470q0 29 19.5 47.5t48.5 18.5q25 0 43 -18.5t18 -47.5t-18 -47t-43 -18q-30 0 -49 18t-19 47z" />
<glyph unicode="&#x4f1;" horiz-adv-x="970" d="M39 840v20h264v-20q-9 0 -21 -15.5t-12 -36.5q0 -17 9 -32l251 -580l242 592q6 15 6 27q0 19 -13 32t-28 13v20h199v-20q-30 0 -54.5 -25.5t-39.5 -64.5l-422 -1043q-50 -147 -164 -147q-36 0 -69.5 16t-51 32.5t-14.5 16.5l67 166q9 -34 21 -55q27 -53 74 -53 q50 0 77 71l99 252l-328 746q-1 3 -8 17l-8.5 17t-8 14t-10 14t-10.5 10t-13 9t-15 4.5t-19 2.5zM332 1067q0 29 18 46t47 17q30 0 48 -17t18 -46t-18.5 -47.5t-47.5 -18.5t-47 18.5t-18 47.5zM569 1067q0 29 18 46t48 17q27 0 45 -17t18 -46t-18 -47.5t-45 -18.5 q-29 0 -47.5 18.5t-18.5 47.5z" />
<glyph unicode="&#x4f2;" horiz-adv-x="1114" d="M14 1331v21h285v-21h-12q-39 0 -39 -41q0 -12 6 -30l350 -766l314 743q10 30 10 43q0 26 -17.5 38.5t-33.5 12.5v21h219v-21q-55 0 -86 -59l-492 -1176q-47 -114 -153 -114q-36 -1 -69.5 15t-51.5 32t-15 16l52 113q37 -82 98 -82q47 0 72 55l79 195l-426 940 q-27 62 -90 65zM381 1421l170 332l104 -65l-252 -283zM569 1423l219 301l93 -79l-289 -242z" />
<glyph unicode="&#x4f3;" horiz-adv-x="970" d="M39 840v20h264v-20q-9 0 -21 -15.5t-12 -36.5q0 -17 9 -32l251 -580l242 592q6 15 6 27q0 19 -13 32t-28 13v20h199v-20q-30 0 -54.5 -25.5t-39.5 -64.5l-422 -1043q-50 -147 -164 -147q-36 0 -69.5 16t-51 32.5t-14.5 16.5l67 166q9 -34 21 -55q27 -53 74 -53 q50 0 77 71l99 252l-328 746q-1 3 -8 17l-8.5 17t-8 14t-10 14t-10.5 10t-13 9t-15 4.5t-19 2.5zM311 930l170 332l105 -66l-252 -283zM500 932l219 301l92 -80l-289 -242z" />
<glyph unicode="&#x4f4;" horiz-adv-x="1126" d="M82 1331v21h285v-21h-11q-28 0 -48.5 -36t-20.5 -70v-250q0 -129 93.5 -215t209.5 -86q95 0 219 88v463q0 33 -16 67.5t-41 38.5h-17v21h291v-21h-16q-28 -4 -46 -39t-18 -67v-1096q0 -34 18 -69.5t46 -39.5h16v-20h-293v20h10q28 0 47 36.5t19 72.5v545 q-48 -36 -117 -62t-141 -26q-181 0 -291 116t-110 285v238q0 34 -17 70t-41 36h-10zM371 1470q0 29 18 47.5t47 18.5t47.5 -18.5t18.5 -47.5t-18.5 -47t-47.5 -18t-47 18t-18 47zM608 1470q0 29 19.5 47.5t48.5 18.5q25 0 43 -18.5t18 -47.5t-18 -47t-43 -18q-30 0 -49 18 t-19 47z" />
<glyph unicode="&#x4f5;" horiz-adv-x="950" d="M63 840v20h240v-20q-24 0 -40.5 -36.5t-16.5 -70.5v-82q0 -66 20 -117t52 -79t67.5 -42t71.5 -14q53 0 97 25t89 80v229q0 35 -17 71t-44 36v20h260v-20q-26 0 -45 -37t-19 -70v-604q0 -35 19 -72t45 -37v-20h-260v20q27 0 44 36.5t17 72.5v283q-50 -52 -102 -76.5 t-127 -24.5q-95 0 -166 50t-104 125.5t-33 164.5v82q0 34 -14 70.5t-34 36.5zM264 1067q0 29 18 46t48 17q29 0 47 -17t18 -46t-18 -47.5t-47 -18.5t-47.5 18.5t-18.5 47.5zM502 1067q0 29 18 46t47 17q27 0 45.5 -17.5t18.5 -45.5q0 -29 -18.5 -47.5t-45.5 -18.5 q-29 0 -47 18.5t-18 47.5z" />
<glyph unicode="&#x4f8;" horiz-adv-x="1458" d="M96 0v20h10q27 0 46.5 36.5t19.5 70.5v1092q0 36 -19 74t-47 38h-10v21h289v-21h-14q-27 -4 -44.5 -41t-17.5 -71v-441h115q80 0 150.5 -12t136.5 -41t113 -72.5t75.5 -111.5t28.5 -154q0 -176 -134.5 -281.5t-340.5 -105.5h-357zM309 72h31q444 0 444 307 q0 150 -105.5 240t-301.5 90h-68v-637zM559 1470q0 29 18.5 47.5t47.5 18.5t47 -18.5t18 -47.5t-18 -47t-47 -18t-47.5 18t-18.5 47zM797 1470q0 29 19 47.5t48 18.5q25 0 43.5 -18.5t18.5 -47.5q0 -28 -18 -46.5t-44 -18.5q-29 0 -48 18t-19 47zM1065 0v20h10 q29 0 47.5 37.5t18.5 75.5v1092q0 35 -18.5 70.5t-47.5 35.5h-10v21h289v-21h-17q-27 -4 -43 -38.5t-16 -67.5v-1092q0 -37 17 -73t44 -40h15v-20h-289z" />
<glyph unicode="&#x4f9;" horiz-adv-x="1316" d="M96 0v20q28 0 47 38t19 75v600q0 34 -19 70.5t-47 36.5v20h266v-20q-28 0 -47.5 -36t-19.5 -71v-246h162q182 0 276 -66.5t94 -174.5t-98 -177t-285 -69h-348zM295 68h145q129 0 192.5 41.5t63.5 111.5q0 80 -70 139.5t-192 59.5h-139v-352zM492 1067q0 29 18 46t47 17 q30 0 48 -17t18 -46t-18.5 -47.5t-47.5 -18.5t-47 18.5t-18 47.5zM729 1067q0 29 18 46t48 17q27 0 45 -17t18 -46t-18 -47.5t-45 -18.5q-29 0 -47.5 18.5t-18.5 47.5zM940 0v20q28 0 47 38t19 75v600q0 34 -19 70.5t-47 36.5v20h266v-20q-28 0 -47.5 -36t-19.5 -71v-600 q0 -37 19 -75t48 -38v-20h-266z" />
<glyph unicode="&#x2000;" horiz-adv-x="876" />
<glyph unicode="&#x2001;" horiz-adv-x="1753" />
<glyph unicode="&#x2002;" horiz-adv-x="876" />
<glyph unicode="&#x2003;" horiz-adv-x="1753" />
<glyph unicode="&#x2004;" horiz-adv-x="584" />
<glyph unicode="&#x2005;" horiz-adv-x="438" />
<glyph unicode="&#x2006;" horiz-adv-x="292" />
<glyph unicode="&#x2007;" horiz-adv-x="292" />
<glyph unicode="&#x2008;" horiz-adv-x="219" />
<glyph unicode="&#x2009;" horiz-adv-x="350" />
<glyph unicode="&#x200a;" horiz-adv-x="97" />
<glyph unicode="&#x2010;" horiz-adv-x="610" d="M59 422v102h465v-102h-465z" />
<glyph unicode="&#x2011;" horiz-adv-x="610" d="M59 422v102h465v-102h-465z" />
<glyph unicode="&#x2012;" horiz-adv-x="610" d="M59 422v102h465v-102h-465z" />
<glyph unicode="&#x2013;" horiz-adv-x="1093" d="M102 422v102h867v-102h-867z" />
<glyph unicode="&#x2014;" horiz-adv-x="1824" d="M61 422v102h1717v-102h-1717z" />
<glyph unicode="&#x2018;" horiz-adv-x="260" d="M10 1069q0 182 223 291l13 -19q-75 -70 -97 -113.5t-22 -94.5q0 -4 0.5 -7t2 -6t2 -5t3.5 -4.5t4 -3.5t4.5 -3.5t5 -3t6 -3t5.5 -3.5t9.5 -6t11 -6.5t9 -6.5t9 -9.5t6 -11t5 -14.5t1.5 -18q0 -37 -24.5 -62.5t-61.5 -25.5q-57 0 -86 38.5t-29 96.5z" />
<glyph unicode="&#x2019;" horiz-adv-x="260" d="M10 950q76 72 97.5 114.5t21.5 92.5q0 11 -5 19t-10.5 11.5t-17.5 10.5q-1 1 -7.5 4.5t-8 5t-7 5t-7.5 6t-6 6.5t-5.5 8.5t-3.5 10t-3 12t-1 14.5q0 38 24 63t60 25q57 0 86 -37.5t29 -95.5q0 -190 -223 -293z" />
<glyph unicode="&#x201a;" horiz-adv-x="247" d="M-8 -217q75 66 96 110t21 97q0 18 -13 29t-28 16.5t-28 22t-13 44.5q0 38 24 63t60 25q57 0 85.5 -38.5t28.5 -96.5q0 -188 -223 -291z" />
<glyph unicode="&#x201c;" horiz-adv-x="536" d="M-8 1071q0 182 223 291l12 -19q-75 -70 -96.5 -113.5t-21.5 -94.5q0 -24 30 -39q1 -1 9.5 -6t11 -6.5t9 -6.5t9 -9.5t6 -11t5 -14.5t1.5 -18q0 -37 -24 -62.5t-60 -25.5q-57 0 -85.5 38.5t-28.5 96.5zM264 1071q0 183 221 291l13 -19q-75 -70 -97 -113.5t-22 -94.5 q0 -10 3.5 -16.5t15 -14t14.5 -10.5q3 -2 12 -7.5t12 -7.5t9.5 -8t9 -11.5t4.5 -15t2 -20.5q0 -37 -24.5 -62.5t-59.5 -25.5q-57 0 -85 38t-28 97z" />
<glyph unicode="&#x201d;" horiz-adv-x="536" d="M-8 952q76 72 97.5 114.5t21.5 92.5q0 11 -5 19t-10.5 11.5t-17.5 10.5q-1 1 -7.5 4.5t-8 5t-7 5t-7.5 6t-6 6.5t-5.5 8.5t-3.5 10t-3 12t-1 14.5q0 38 24 63t60 25q57 0 85.5 -37.5t28.5 -95.5q0 -181 -223 -293zM264 952q73 73 95 115t22 92q0 11 -5 19t-10.5 11.5 t-17.5 10.5q-16 10 -24 16t-16.5 21t-8.5 35q0 38 24 63t60 25q57 0 86 -37.5t29 -95.5q0 -183 -222 -293z" />
<glyph unicode="&#x201e;" horiz-adv-x="552" d="M-8 -217q76 67 97.5 111t21.5 96q0 22 -33 41q-17 10 -24 15.5t-16 20.5t-9 35q0 38 24 63t60 25q57 0 85.5 -38.5t28.5 -96.5q0 -185 -223 -291zM295 -217q76 67 97.5 111t21.5 96q0 22 -33 41q-17 10 -24 15.5t-16 20.5t-9 35q0 38 24 63t60 25q57 0 85.5 -38.5 t28.5 -96.5q0 -185 -223 -291z" />
<glyph unicode="&#x2022;" horiz-adv-x="423" d="M115 303v184h209v-184h-209z" />
<glyph unicode="&#x2026;" horiz-adv-x="1253" d="M106 88q0 41 28 69.5t69 28.5t69.5 -28.5t28.5 -69.5t-28.5 -68.5t-69.5 -27.5t-69 27.5t-28 68.5zM518 88q0 42 26.5 70t67.5 28t70 -28.5t29 -69.5t-28.5 -68.5t-70.5 -27.5q-41 0 -67.5 27.5t-26.5 68.5zM938 88q0 42 26.5 70t67.5 28t69.5 -28.5t28.5 -69.5 t-28.5 -68.5t-69.5 -27.5t-67.5 27.5t-26.5 68.5z" />
<glyph unicode="&#x202f;" horiz-adv-x="350" />
<glyph unicode="&#x2039;" horiz-adv-x="509" d="M98 451l289 364l12 -8l-157 -354l153 -359l-12 -10z" />
<glyph unicode="&#x203a;" horiz-adv-x="509" d="M102 805l17 8l284 -362l-280 -365l-17 10l158 357z" />
<glyph unicode="&#x205f;" horiz-adv-x="438" />
<glyph unicode="&#x20ac;" horiz-adv-x="1091" d="M25 520v78h125q-5 58 -5 78q0 83 5 112h-125v80h135q43 232 171.5 367t286.5 135q36 0 140 -31q61 -22 96 -22v-221h-20q-48 198 -236 198q-79 0 -148.5 -63t-113 -158.5t-60.5 -204.5h578v-80h-584v-26q0 -88 15 -164h567v-78h-553q24 -94 55.5 -172t76 -146.5 t105 -107.5t130.5 -39q64 0 124 58t76 161h19v-225q-31 0 -70 -20l-12 -6q-93 -43 -168 -43q-169 0 -306 147t-173 393h-131z" />
<glyph unicode="&#x2122;" horiz-adv-x="1507" d="M31 1186v166h579v-166h-20q-2 35 -28.5 65.5t-65.5 30.5h-121v-461q0 -24 12 -56t29 -32v-20h-195v20q17 0 28 31.5t11 56.5v461h-115q-38 0 -63.5 -29.5t-30.5 -66.5h-20zM692 715v20q17 0 28 31.5t11 54.5v428q0 17 -0.5 27t-4 24.5t-12 22t-22.5 8.5v21h133l222 -434 l215 434h147v-21q-16 0 -26.5 -27.5t-10.5 -54.5v-428q0 -23 11 -54.5t26 -31.5v-20h-192v20q17 0 28.5 31t11.5 55v348l-235 -469l-225 441v-320q0 -23 12 -54.5t29 -31.5v-20h-146z" />
<glyph unicode="&#x25fc;" horiz-adv-x="860" d="M0 0v860h860v-860h-860z" />
</font>
</defs>
</svg>
